<svg width="28" height="29" viewBox="0 0 28 29" fill="none" xmlns="http://www.w3.org/2000/svg">
<g clip-path="url(#clip0)">
<path d="M13.9999 0.712402C8.17588 0.712402 3.43799 5.38539 3.43799 11.1289C3.43799 19.3986 12.8666 27.706 13.2682 28.0563C13.4782 28.238 13.739 28.3288 13.9999 28.3288C14.271 28.3288 14.5422 28.2307 14.7537 28.0352C15.1538 27.666 24.5618 18.9015 24.5618 11.1296C24.5618 5.38612 19.8224 0.712402 13.9999 0.712402ZM13.9999 16.0962C11.2183 16.0962 8.9643 13.8716 8.9643 11.1303C8.9643 8.38905 11.2183 6.16447 13.9999 6.16447C16.78 6.16447 19.034 8.38832 19.034 11.1303C19.034 13.8724 16.78 16.0962 13.9999 16.0962Z" fill="#2D2D2D"/>
</g>
<defs>
<clipPath id="clip0">
<rect width="28" height="27.6164" fill="white" transform="translate(0 0.712402)"/>
</clipPath>
</defs>
</svg>
