<svg width="11" height="10" viewBox="0 0 11 10" fill="none" xmlns="http://www.w3.org/2000/svg">
<path d="M10.4991 7.33898L9.10353 5.94345C8.60512 5.44505 7.75784 5.64443 7.55848 6.29234C7.40896 6.74092 6.91055 6.99012 6.46199 6.89042C5.46518 6.64122 4.1195 5.34537 3.87029 4.29873C3.72077 3.85014 4.01982 3.35174 4.46838 3.20224C5.1163 3.00288 5.31566 2.15559 4.81726 1.65719L3.42173 0.261662C3.02301 -0.0872205 2.42493 -0.0872205 2.07604 0.261662L1.12908 1.20863C0.182113 2.20543 1.22876 4.84697 3.57125 7.18946C5.91375 9.53196 8.55528 10.6285 9.55209 9.63164L10.4991 8.68467C10.848 8.28595 10.848 7.68787 10.4991 7.33898Z" fill="#323348"/>
</svg>
