<svg width="204" height="27" viewBox="0 0 204 27" fill="none" xmlns="http://www.w3.org/2000/svg">
<path d="M20.8429 20.0926C21.1592 20.0926 21.425 20.1997 21.6402 20.4139L23.8992 22.6812C22.7855 24.0142 21.3997 25.0258 19.7418 25.7161C18.0966 26.4064 16.135 26.7515 13.857 26.7515C11.7941 26.7515 9.9401 26.4242 8.29488 25.7697C6.64966 25.1032 5.25122 24.1808 4.09957 23.0025C2.94791 21.8243 2.06202 20.4258 1.4419 18.8072C0.82178 17.1886 0.511719 15.4212 0.511719 13.505C0.511719 12.2196 0.657258 10.9997 0.948335 9.84527C1.25207 8.67892 1.68868 7.60777 2.25818 6.63184C2.82768 5.6559 3.51108 4.77518 4.30838 3.98968C5.11834 3.20417 6.02954 2.53768 7.04198 1.9902C8.05442 1.43083 9.15546 1.00832 10.3451 0.72268C11.5474 0.425138 12.8256 0.276367 14.1797 0.276367C15.1922 0.276367 16.1476 0.359679 17.0462 0.526302C17.9574 0.692926 18.8053 0.925008 19.59 1.22255C20.3746 1.52009 21.096 1.88309 21.7541 2.31155C22.4248 2.7281 23.0259 3.18632 23.5575 3.68618L21.6402 6.14982C21.5263 6.30454 21.3807 6.44141 21.2035 6.56043C21.0264 6.67944 20.7859 6.73895 20.4822 6.73895C20.1784 6.73895 19.8684 6.63779 19.552 6.43546C19.2483 6.23313 18.8686 6.007 18.413 5.75707C17.97 5.50713 17.4069 5.281 16.7235 5.07867C16.0527 4.87635 15.1985 4.77518 14.1607 4.77518C13.0091 4.77518 11.9523 4.97156 10.9905 5.36431C10.0287 5.75707 9.19975 6.32834 8.5037 7.07815C7.8203 7.81605 7.28876 8.72652 6.9091 9.80957C6.52943 10.8926 6.3396 12.1244 6.3396 13.505C6.3396 14.8975 6.54209 16.1412 6.94706 17.2362C7.3647 18.3192 7.92787 19.2357 8.63658 19.9855C9.35795 20.7353 10.1932 21.3065 11.1424 21.6993C12.1042 22.0801 13.1293 22.2706 14.2177 22.2706C14.8631 22.2706 15.4453 22.2408 15.9641 22.1813C16.4957 22.1218 16.9829 22.0206 17.4259 21.8778C17.8815 21.735 18.3054 21.5505 18.6977 21.3244C19.1027 21.0983 19.5077 20.8126 19.9127 20.4675C20.0519 20.3604 20.1974 20.2711 20.3493 20.1997C20.5012 20.1283 20.6657 20.0926 20.8429 20.0926Z" fill="#323348"/>
<path d="M36.1909 18.7715C34.9127 18.831 33.8496 18.9381 33.0017 19.0928C32.1538 19.2357 31.4767 19.4261 30.9705 19.6641C30.4769 19.9021 30.1226 20.1759 29.9074 20.4853C29.7049 20.7829 29.6037 21.1102 29.6037 21.4672C29.6037 22.1813 29.8125 22.6871 30.2302 22.9847C30.6604 23.2822 31.2552 23.431 32.0146 23.431C32.8878 23.431 33.6408 23.2882 34.2736 23.0025C34.919 22.705 35.5581 22.2468 36.1909 21.6279V18.7715ZM25.5223 10.6129C26.6739 9.637 27.9458 8.911 29.3379 8.43493C30.73 7.94697 32.2361 7.70298 33.856 7.70298C35.0203 7.70298 36.058 7.88151 36.9692 8.23856C37.8931 8.5956 38.6714 9.09547 39.3042 9.73816C39.9496 10.3689 40.4432 11.1247 40.7849 12.0054C41.1266 12.8861 41.2974 13.8502 41.2974 14.8975V26.4659H38.9055C38.412 26.4659 38.0323 26.4004 37.7665 26.2695C37.5134 26.1386 37.3046 25.8649 37.1401 25.4483L36.7224 24.27C36.2289 24.6747 35.748 25.0317 35.2797 25.3412C34.8241 25.6506 34.3495 25.9125 33.856 26.1267C33.3624 26.329 32.8309 26.4837 32.2614 26.5909C31.7045 26.698 31.0781 26.7515 30.382 26.7515C29.5214 26.7515 28.7368 26.6444 28.0281 26.4302C27.3194 26.216 26.7056 25.9006 26.1867 25.484C25.6805 25.0556 25.2882 24.5259 25.0097 23.8951C24.7313 23.2644 24.5921 22.5384 24.5921 21.7171C24.5921 21.0388 24.7756 20.3604 25.1426 19.682C25.5096 19.0036 26.1361 18.3906 27.022 17.8432C27.9205 17.2838 29.1101 16.8256 30.5908 16.4685C32.0842 16.0996 33.9509 15.8913 36.1909 15.8437V14.8975C36.1909 13.7431 35.9315 12.898 35.4126 12.3625C34.8937 11.815 34.147 11.5413 33.1726 11.5413C32.4512 11.5413 31.8501 11.6246 31.3691 11.7912C30.8882 11.9459 30.4643 12.1185 30.0973 12.3089C29.7429 12.4874 29.4075 12.66 29.0911 12.8266C28.7748 12.9814 28.4077 13.0587 27.9901 13.0587C27.6231 13.0587 27.313 12.9754 27.0599 12.8088C26.8195 12.6303 26.617 12.422 26.4525 12.1839L25.5223 10.6129Z" fill="#323348"/>
<path d="M49.8699 11.0949C50.49 10.0476 51.2051 9.22044 52.015 8.61346C52.825 8.00648 53.7742 7.70298 54.8625 7.70298C55.7484 7.70298 56.4698 7.89936 57.0266 8.29211L56.6849 11.934C56.6217 12.172 56.5204 12.3387 56.3812 12.4339C56.2546 12.5172 56.0775 12.5588 55.8497 12.5588C55.6472 12.5588 55.3561 12.535 54.9764 12.4874C54.5968 12.4279 54.2424 12.3982 53.9134 12.3982C53.4325 12.3982 53.0022 12.4636 52.6225 12.5946C52.2555 12.7255 51.9264 12.9099 51.6354 13.148C51.3443 13.386 51.0785 13.6776 50.8381 14.0227C50.6103 14.3679 50.3951 14.7606 50.1926 15.201V26.4659H44.9532V8.06003H48.0475C48.5791 8.06003 48.9461 8.14929 49.1486 8.32782C49.351 8.50634 49.4966 8.81579 49.5852 9.25615L49.8699 11.0949Z" fill="#323348"/>
<path d="M81.3642 1.20469V26.4659H80.453C80.2885 26.4659 80.1492 26.4421 80.0353 26.3945C79.9341 26.335 79.8329 26.2398 79.7316 26.1088L62.2859 4.18605C62.3239 4.5431 62.3429 4.8823 62.3429 5.20364V26.4659H60.6344V1.20469H61.6025C61.7797 1.20469 61.9126 1.2285 62.0012 1.27611C62.1024 1.31181 62.21 1.40107 62.3239 1.54389L79.7316 23.4131C79.6936 23.0561 79.6747 22.7169 79.6747 22.3955V1.20469H81.3642Z" fill="#323348"/>
<path d="M100.664 15.7901C100.664 14.838 100.518 13.987 100.227 13.2372C99.9487 12.4755 99.55 11.8328 99.0312 11.3092C98.5123 10.7855 97.8922 10.3868 97.1708 10.1131C96.4621 9.82742 95.6775 9.6846 94.8169 9.6846C93.8424 9.6846 92.9692 9.82742 92.1972 10.1131C91.4252 10.3987 90.7544 10.8093 90.1849 11.3449C89.6281 11.8805 89.1788 12.5231 88.8371 13.2729C88.4954 14.0227 88.2676 14.8618 88.1537 15.7901H100.664ZM88.0588 16.8791V17.2183C88.0588 18.5513 88.2233 19.7236 88.5524 20.7353C88.8814 21.7469 89.3497 22.5979 89.9571 23.2882C90.5646 23.9666 91.2986 24.4783 92.1592 24.8235C93.0198 25.1686 93.9816 25.3412 95.0447 25.3412C95.9938 25.3412 96.8165 25.246 97.5125 25.0556C98.2086 24.8532 98.7907 24.633 99.259 24.395C99.7399 24.1451 100.12 23.9249 100.398 23.7345C100.676 23.5321 100.879 23.431 101.005 23.431C101.17 23.431 101.297 23.4905 101.385 23.6095L101.879 24.1808C101.575 24.5378 101.17 24.8711 100.664 25.1805C100.17 25.49 99.6133 25.7577 98.9932 25.9839C98.3857 26.1981 97.7276 26.3707 97.0189 26.5016C96.3229 26.6325 95.6205 26.698 94.9118 26.698C93.6209 26.698 92.444 26.4897 91.3809 26.0731C90.3178 25.6447 89.4066 25.0258 88.6473 24.2165C87.888 23.4072 87.2995 22.4193 86.8818 21.253C86.4769 20.0747 86.2744 18.7298 86.2744 17.2183C86.2744 15.9449 86.4642 14.7725 86.8439 13.7014C87.2362 12.6184 87.793 11.69 88.5144 10.9164C89.2484 10.1309 90.1406 9.51798 91.1911 9.07762C92.2541 8.63726 93.4564 8.41708 94.7979 8.41708C95.861 8.41708 96.8481 8.58965 97.7593 8.9348C98.6705 9.27995 99.4615 9.78577 100.132 10.4523C100.803 11.1068 101.328 11.9162 101.708 12.8802C102.1 13.8442 102.296 14.9511 102.296 16.2007C102.296 16.4626 102.258 16.6411 102.182 16.7363C102.106 16.8315 101.98 16.8791 101.803 16.8791H88.0588Z" fill="#323348"/>
<path d="M111.868 26.7515C110.59 26.7515 109.59 26.4183 108.868 25.7518C108.16 25.0853 107.805 24.0558 107.805 22.6633V10.5237H105.091C104.952 10.5237 104.838 10.488 104.749 10.4166C104.66 10.3451 104.616 10.244 104.616 10.1131V9.45252L107.843 9.23829L108.299 2.88282C108.324 2.77571 108.375 2.6805 108.451 2.59719C108.527 2.51387 108.634 2.47222 108.774 2.47222H109.628V9.25615H115.589V10.5237H109.628V22.5741C109.628 23.062 109.691 23.4845 109.818 23.8416C109.957 24.1867 110.14 24.4724 110.368 24.6985C110.609 24.9246 110.887 25.0913 111.203 25.1984C111.52 25.3055 111.861 25.359 112.228 25.359C112.684 25.359 113.076 25.2995 113.405 25.1805C113.734 25.0496 114.019 24.9127 114.26 24.7699C114.5 24.6152 114.696 24.4783 114.848 24.3593C115 24.2284 115.12 24.1629 115.209 24.1629C115.31 24.1629 115.411 24.2224 115.513 24.3415L116.006 25.0913C115.525 25.5911 114.911 25.9958 114.165 26.3052C113.431 26.6028 112.665 26.7515 111.868 26.7515Z" fill="#323348"/>
<path d="M153.612 1.20469L145.165 26.4659H143.418L135.483 4.5431C135.382 4.24556 135.294 3.93612 135.218 3.61477C135.142 3.93612 135.053 4.24556 134.952 4.5431L126.998 26.4659H125.27L116.804 1.20469H118.417C118.784 1.20469 119.019 1.36537 119.12 1.68671L125.897 22.4491C126.036 22.9252 126.163 23.4667 126.276 24.0737C126.34 23.7642 126.403 23.4786 126.466 23.2168C126.53 22.943 126.606 22.6871 126.694 22.4491L134.287 1.68671C134.338 1.55579 134.427 1.44273 134.553 1.34751C134.68 1.2523 134.832 1.20469 135.009 1.20469H135.54C135.717 1.20469 135.863 1.2523 135.977 1.34751C136.091 1.43083 136.179 1.54389 136.243 1.68671L143.836 22.4491C143.925 22.6752 144.001 22.9252 144.064 23.1989C144.14 23.4726 144.209 23.7583 144.273 24.0558C144.336 23.7583 144.393 23.4786 144.443 23.2168C144.507 22.943 144.57 22.6871 144.633 22.4491L151.41 1.68671C151.448 1.55579 151.531 1.44273 151.657 1.34751C151.796 1.2523 151.955 1.20469 152.132 1.20469H153.612Z" fill="#323348"/>
<path d="M162.739 8.41708C164.093 8.41708 165.302 8.63726 166.365 9.07762C167.441 9.50608 168.346 10.119 169.08 10.9164C169.814 11.7138 170.371 12.6779 170.75 13.8085C171.143 14.9273 171.339 16.1829 171.339 17.5754C171.339 18.9679 171.143 20.2235 170.75 21.3422C170.371 22.461 169.814 23.4191 169.08 24.2165C168.346 25.0139 167.441 25.6268 166.365 26.0553C165.302 26.4837 164.093 26.698 162.739 26.698C161.385 26.698 160.17 26.4837 159.095 26.0553C158.031 25.6268 157.127 25.0139 156.38 24.2165C155.646 23.4191 155.083 22.461 154.69 21.3422C154.311 20.2235 154.121 18.9679 154.121 17.5754C154.121 16.1829 154.311 14.9273 154.69 13.8085C155.083 12.6779 155.646 11.7138 156.38 10.9164C157.127 10.119 158.031 9.50608 159.095 9.07762C160.17 8.63726 161.385 8.41708 162.739 8.41708ZM162.739 25.359C163.866 25.359 164.846 25.1805 165.682 24.8235C166.53 24.4545 167.232 23.9309 167.789 23.2525C168.358 22.5741 168.782 21.7588 169.061 20.8067C169.339 19.8426 169.478 18.7655 169.478 17.5754C169.478 16.3971 169.339 15.326 169.061 14.3619C168.782 13.3979 168.358 12.5767 167.789 11.8983C167.232 11.208 166.53 10.6784 165.682 10.3094C164.846 9.94049 163.866 9.75601 162.739 9.75601C161.613 9.75601 160.626 9.94049 159.778 10.3094C158.943 10.6784 158.24 11.208 157.671 11.8983C157.114 12.5767 156.69 13.3979 156.399 14.3619C156.12 15.326 155.981 16.3971 155.981 17.5754C155.981 18.7655 156.12 19.8426 156.399 20.8067C156.69 21.7588 157.114 22.5741 157.671 23.2525C158.24 23.9309 158.943 24.4545 159.778 24.8235C160.626 25.1805 161.613 25.359 162.739 25.359Z" fill="#323348"/>
<path d="M177.724 12.9873C178.015 12.2613 178.344 11.6186 178.711 11.0592C179.091 10.488 179.521 10.0059 180.002 9.61319C180.496 9.22044 181.04 8.9229 181.635 8.72057C182.242 8.50634 182.913 8.39923 183.647 8.39923C184.039 8.39923 184.425 8.43493 184.805 8.50634C185.185 8.56585 185.52 8.67892 185.811 8.84554L185.659 10.0238C185.596 10.2142 185.476 10.3094 185.299 10.3094C185.147 10.3094 184.913 10.2678 184.596 10.1845C184.293 10.1012 183.888 10.0595 183.381 10.0595C182.647 10.0595 181.996 10.1666 181.426 10.3808C180.869 10.5832 180.363 10.8926 179.907 11.3092C179.464 11.7257 179.072 12.2435 178.73 12.8623C178.401 13.4693 178.098 14.1715 177.819 14.9689V26.4659H175.997V8.70272H176.965C177.18 8.70272 177.332 8.74438 177.421 8.82769C177.509 8.911 177.566 9.05382 177.591 9.25615L177.724 12.9873Z" fill="#323348"/>
<path d="M190.807 0.490598V16.3257H191.68C191.858 16.3257 192.022 16.3019 192.174 16.2543C192.338 16.2067 192.516 16.0936 192.705 15.9151L200.28 9.14903C200.406 9.00621 200.546 8.8991 200.697 8.82769C200.849 8.74438 201.039 8.70272 201.267 8.70272H202.862L194.528 16.1472C194.3 16.3971 194.053 16.5935 193.788 16.7363C193.99 16.8315 194.161 16.9446 194.3 17.0755C194.452 17.1945 194.597 17.3373 194.737 17.504L203.488 26.4659H201.912C201.735 26.4659 201.571 26.4421 201.419 26.3945C201.28 26.335 201.147 26.2219 201.02 26.0553L193.085 18.0574C192.984 17.9503 192.883 17.861 192.781 17.7896C192.693 17.7182 192.598 17.6646 192.497 17.6289C192.395 17.5813 192.275 17.5516 192.136 17.5397C192.009 17.5159 191.851 17.504 191.661 17.504H190.807V26.4659H188.985V0.490598H190.807Z" fill="#323348"/>
</svg>
