<svg width="27" height="27" viewBox="0 0 27 27" fill="none" xmlns="http://www.w3.org/2000/svg">
<g clip-path="url(#clip0)">
<path d="M13.5007 0C6.05782 0 0.000976562 6.05566 0.000976562 13.4995C0.000976562 20.9433 6.05743 27 13.5007 27C20.9453 27 27.0005 20.9438 27.0005 13.4995C27.0005 6.05566 20.9457 0 13.5007 0ZM19.3434 10.7336L12.2731 17.8039C12.0608 18.016 11.7811 18.123 11.5039 18.123C11.2246 18.123 10.9474 18.016 10.7344 17.8039L7.6595 14.729C7.23436 14.3034 7.23436 13.6152 7.6595 13.1901C8.08455 12.7651 8.77282 12.7651 9.19795 13.1901L11.5039 15.4969L17.8059 9.19453C18.2301 8.76995 18.9183 8.76995 19.3434 9.19453C19.7685 9.62029 19.7685 10.3086 19.3434 10.7336Z" fill="#03814C"/>
</g>
<defs>
<clipPath id="clip0">
<rect width="27" height="27" fill="white"/>
</clipPath>
</defs>
</svg>
