<svg width="16" height="16" viewBox="0 0 16 16" fill="none" xmlns="http://www.w3.org/2000/svg">
<path d="M7.45371 0.253594L7.18637 0L0.760742 4.17081L1.17137 4.58144C1.33021 4.74025 5.09302 8.46875 8.06527 8.46875H8.20718L15.2384 3.78125H13.6903C11.1011 3.78125 7.48987 0.288406 7.45371 0.253594Z" fill="#101116"/>
<path d="M11.9274 10.8654L8.49099 13.1563H8.06527C6.07493 13.1563 3.89584 11.7983 2.38271 10.626L0.760742 11.6709L1.17137 12.0815C1.33021 12.2403 5.09302 16.0001 8.06527 16.0001H8.20718L15.2384 11.2813H13.6903C13.1346 11.2813 12.5318 11.1162 11.9274 10.8654Z" fill="#101116"/>
<path d="M11.9274 7.11538L8.49099 9.40632H8.06527C6.07493 9.40632 3.89584 8.04832 2.38271 6.87598L0.760742 7.92088L1.17137 8.3315C1.33021 8.49032 5.09302 12.2188 8.06527 12.2188H8.20718L15.2384 7.53132H13.6903C13.1346 7.53132 12.5318 7.36619 11.9274 7.11538Z" fill="#101116"/>
</svg>
