<svg width="11" height="10" viewBox="0 0 11 10" fill="none" xmlns="http://www.w3.org/2000/svg">
<path d="M8.00015 0H3.00015C1.83323 0 0.884766 0.948462 0.884766 2.11538V7.88462C0.884766 9.05154 1.83323 10 3.00015 10H8.00015C9.16707 10 10.1155 9.05154 10.1155 7.88462V2.11538C10.1155 0.948462 9.16707 0 8.00015 0ZM7.23092 7.88462H3.76938C3.45092 7.88462 3.19246 7.62615 3.19246 7.30769C3.19246 6.98923 3.45092 6.73077 3.76938 6.73077H7.23092C7.54938 6.73077 7.80784 6.98923 7.80784 7.30769C7.80784 7.62615 7.54938 7.88462 7.23092 7.88462ZM7.23092 5.57692H3.76938C3.45092 5.57692 3.19246 5.31846 3.19246 5C3.19246 4.68154 3.45092 4.42308 3.76938 4.42308H7.23092C7.54938 4.42308 7.80784 4.68154 7.80784 5C7.80784 5.31846 7.54938 5.57692 7.23092 5.57692ZM7.23092 3.26923H3.76938C3.45092 3.26923 3.19246 3.01077 3.19246 2.69231C3.19246 2.37385 3.45092 2.11538 3.76938 2.11538H7.23092C7.54938 2.11538 7.80784 2.37385 7.80784 2.69231C7.80784 3.01077 7.54938 3.26923 7.23092 3.26923Z" fill="#323348"/>
</svg>
