<svg width="61" height="61" viewBox="0 0 61 61" fill="none" xmlns="http://www.w3.org/2000/svg">
<rect width="60.3249" height="60.3249" rx="16" fill="#03814C"/>
<g clip-path="url(#clip0)">
<path d="M30.1621 49.1538C29.9847 49.1538 29.8062 49.1144 29.6428 49.0332C22.1338 45.3773 15.9185 41.4316 15.9185 30.1623V17.1057C15.9185 16.6061 16.2302 16.1609 16.6997 15.9906L29.7563 11.2427C30.0183 11.1476 30.3058 11.1476 30.5677 11.2427L43.6244 15.9905C44.0938 16.1609 44.4056 16.606 44.4056 17.1056V30.1622C44.4056 41.4315 38.1903 45.3772 30.6813 49.0332C30.5179 49.1144 30.3394 49.1538 30.1621 49.1538ZM18.2924 17.9368V30.1623C18.2924 39.0171 22.2891 42.7367 30.1621 46.6431C38.035 42.7367 42.0317 39.0171 42.0317 30.1623V17.9368L30.1621 13.6212L18.2924 17.9368Z" fill="white"/>
<path d="M29.3229 34.9101L23.7358 29.323L25.4143 27.6446L29.3229 31.5532L36.7924 24.0836L38.4708 25.7621L29.3229 34.9101Z" fill="white"/>
</g>
<defs>
<clipPath id="clip0">
<rect width="37.9824" height="37.9824" fill="white" transform="translate(11.1709 11.1714)"/>
</clipPath>
</defs>
</svg>
