<svg width="61" height="61" viewBox="0 0 61 61" fill="none" xmlns="http://www.w3.org/2000/svg">
<rect width="60.3249" height="60.3249" rx="16" fill="#03814C"/>
<g clip-path="url(#clip0)">
<path d="M35.355 33.5009H24.9692V35.7264H35.355V33.5009Z" fill="white"/>
<path d="M40.1772 35.3555C41.4063 35.3555 42.4027 34.3591 42.4027 33.1299C42.4027 31.9008 41.4063 30.9044 40.1772 30.9044C38.9481 30.9044 37.9517 31.9008 37.9517 33.1299C37.9517 34.3591 38.9481 35.3555 40.1772 35.3555Z" fill="white"/>
<path d="M20.1474 35.3555C21.3765 35.3555 22.3729 34.3591 22.3729 33.1299C22.3729 31.9008 21.3765 30.9044 20.1474 30.9044C18.9183 30.9044 17.9219 31.9008 17.9219 33.1299C17.9219 34.3591 18.9183 35.3555 20.1474 35.3555Z" fill="white"/>
<path d="M49.1533 27.1952C49.1533 25.3544 47.6557 23.8569 45.815 23.8569H43.5894C43.2989 23.8569 43.017 23.8943 42.7482 23.9644L40.5902 17.9221H19.7339L17.576 23.9644C17.3071 23.8943 17.0252 23.8569 16.7347 23.8569H14.5092C12.6685 23.8569 11.1709 25.3544 11.1709 27.1952C11.1709 28.6933 12.163 29.964 13.5247 30.3852C13.4892 30.5547 13.4706 30.7277 13.4706 30.9044V42.4029H20.5181V40.1774H39.806V42.4029H46.8536V30.9044C46.8536 30.7277 46.835 30.5547 46.7995 30.3852C48.1611 29.964 49.1533 28.6933 49.1533 27.1952ZM21.3023 20.1476H39.0218L40.8558 25.2826C40.6235 25.6136 40.4495 25.9883 40.3494 26.392C37.4769 25.7112 33.913 25.3406 30.1621 25.3406C26.4112 25.3406 22.8473 25.7112 19.9747 26.392C19.8746 25.9883 19.7007 25.6136 19.4684 25.2826L21.3023 20.1476ZM14.5092 28.3079C13.8956 28.3079 13.3964 27.8087 13.3964 27.1952C13.3964 26.5816 13.8956 26.0824 14.5092 26.0824H16.7347C17.2826 26.0824 17.7383 26.4809 17.8297 27.0031C16.6987 27.3894 15.7864 27.825 15.0941 28.3079H14.5092ZM44.628 37.9519H15.6961V30.9044C15.6961 30.6438 16.3861 29.7029 19.4519 28.8269C22.2978 28.0139 26.1014 27.5661 30.1621 27.5661C34.2228 27.5661 38.0264 28.0139 40.8722 28.8269C43.938 29.7029 44.628 30.6438 44.628 30.9044V37.9519ZM45.815 28.3079H45.23C44.5377 27.825 43.6255 27.3894 42.4945 27.0031C42.5859 26.4809 43.0415 26.0824 43.5894 26.0824H45.815C46.4286 26.0824 46.9277 26.5816 46.9277 27.1952C46.9277 27.8087 46.4286 28.3079 45.815 28.3079Z" fill="white"/>
</g>
<defs>
<clipPath id="clip0">
<rect width="37.9824" height="37.9824" fill="white" transform="translate(11.1709 11.1714)"/>
</clipPath>
</defs>
</svg>
