<svg width="61" height="61" viewBox="0 0 61 61" fill="none" xmlns="http://www.w3.org/2000/svg">
<rect width="60.3249" height="60.3249" rx="16" fill="#03814C"/>
<g clip-path="url(#clip0)">
<path d="M44.967 33.0188L35.8733 43.1438L30.7413 38.2587L28.936 40.1552L36.0202 46.8986L46.915 34.7683L44.967 33.0188Z" fill="white"/>
<path d="M35.648 31.0767C38.1868 29.3283 39.8547 26.4021 39.8547 23.0932C39.8547 17.7515 35.5088 13.4056 30.1671 13.4056C24.8254 13.4056 20.4795 17.7515 20.4795 23.0932C20.4795 26.4019 22.1473 29.3281 24.6858 31.0765C22.3156 31.8944 20.1432 33.2454 18.3181 35.0706C15.1532 38.2355 13.4102 42.4436 13.4102 46.9195H16.0284C16.0284 39.1234 22.371 32.7808 30.1671 32.7808C33.4721 32.7808 36.5147 33.922 38.9247 35.8293L40.6826 33.8721C39.1656 32.6446 37.4649 31.7041 35.648 31.0767ZM30.1671 30.1626C26.2691 30.1626 23.0978 26.9913 23.0978 23.0932C23.0978 19.1952 26.2691 16.0239 30.1671 16.0239C34.0651 16.0239 37.2364 19.1952 37.2364 23.0932C37.2364 26.9913 34.0651 30.1626 30.1671 30.1626Z" fill="white"/>
</g>
<defs>
<clipPath id="clip0">
<rect width="33.5139" height="33.5139" fill="white" transform="translate(13.4053 13.4056)"/>
</clipPath>
</defs>
</svg>
