<svg width="164" height="22" viewBox="0 0 164 22" fill="none" xmlns="http://www.w3.org/2000/svg">
<path d="M16.4271 16.4666C16.6827 16.4666 16.8974 16.5556 17.0713 16.7336L18.8965 18.6177C17.9967 19.7253 16.877 20.566 15.5375 21.1396C14.2082 21.7132 12.6232 22 10.7827 22C9.11593 22 7.61791 21.728 6.28861 21.1841C4.95931 20.6303 3.82941 19.8638 2.8989 18.8847C1.96839 17.9056 1.25261 16.7435 0.751566 15.3985C0.250522 14.0535 0 12.5849 0 10.9926C0 9.92448 0.117592 8.91077 0.352776 7.95145C0.598185 6.98224 0.950961 6.09216 1.4111 5.28119C1.87124 4.47022 2.42342 3.73837 3.06761 3.08564C3.72204 2.43291 4.45827 1.87907 5.2763 1.42414C6.09433 0.959317 6.98394 0.608227 7.94512 0.370871C8.91653 0.123624 9.9493 0 11.0434 0C11.8614 0 12.6335 0.0692293 13.3595 0.207688C14.0957 0.346147 14.7808 0.538999 15.4148 0.786245C16.0487 1.03349 16.6316 1.33513 17.1633 1.69117C17.7052 2.03731 18.191 2.41807 18.6204 2.83345L17.0713 4.88065C16.9792 5.00922 16.8617 5.12295 16.7185 5.22185C16.5753 5.32075 16.3811 5.3702 16.1357 5.3702C15.8902 5.3702 15.6397 5.28613 15.3841 5.118C15.1387 4.94988 14.8319 4.76197 14.4638 4.55428C14.1059 4.3466 13.6509 4.15869 13.0987 3.99056C12.5568 3.82243 11.8666 3.73837 11.0281 3.73837C10.0976 3.73837 9.24374 3.90155 8.46662 4.22792C7.68949 4.55428 7.01972 5.029 6.45733 5.65206C5.90516 6.26523 5.47569 7.0218 5.16893 7.92178C4.86217 8.82176 4.70879 9.84536 4.70879 10.9926C4.70879 12.1497 4.87239 13.1832 5.19961 14.0931C5.53704 14.993 5.99207 15.7546 6.56469 16.3776C7.14754 17.0007 7.82242 17.4754 8.58932 17.8018C9.36645 18.1182 10.1947 18.2765 11.0741 18.2765C11.5956 18.2765 12.066 18.2517 12.4852 18.2023C12.9147 18.1528 13.3083 18.0688 13.6662 17.9501C14.0343 17.8314 14.3769 17.6781 14.6939 17.4902C15.0211 17.3023 15.3483 17.065 15.6755 16.7782C15.788 16.6891 15.9056 16.615 16.0283 16.5556C16.151 16.4963 16.2839 16.4666 16.4271 16.4666Z" fill="white"/>
<path d="M28.8279 15.3688C27.7952 15.4183 26.9362 15.5073 26.2511 15.6359C25.566 15.7546 25.019 15.9128 24.61 16.1106C24.2112 16.3084 23.9249 16.5359 23.751 16.793C23.5874 17.0402 23.5056 17.3122 23.5056 17.6089C23.5056 18.2023 23.6743 18.6226 24.0118 18.8699C24.3594 19.1171 24.84 19.2407 25.4536 19.2407C26.1591 19.2407 26.7675 19.1221 27.2788 18.8847C27.8003 18.6374 28.3167 18.2567 28.8279 17.7424V15.3688ZM20.2079 8.58935C21.1385 7.77838 22.1661 7.1751 23.2909 6.7795C24.4157 6.37402 25.6325 6.17128 26.9414 6.17128C27.8821 6.17128 28.7206 6.31962 29.4568 6.61632C30.2033 6.91301 30.8321 7.32839 31.3434 7.86244C31.8649 8.3866 32.2637 9.01461 32.5398 9.74646C32.8158 10.4783 32.9539 11.2794 32.9539 12.1497V21.7626H31.0213C30.6225 21.7626 30.3157 21.7083 30.101 21.5995C29.8965 21.4907 29.7278 21.2632 29.5948 20.9171L29.2574 19.938C28.8586 20.2742 28.4701 20.5709 28.0917 20.8281C27.7236 21.0852 27.3401 21.3028 26.9414 21.4808C26.5426 21.6489 26.1131 21.7775 25.653 21.8665C25.203 21.9555 24.6969 22 24.1345 22C23.4392 22 22.8052 21.911 22.2326 21.733C21.6599 21.555 21.164 21.2929 20.7448 20.9467C20.3358 20.5907 20.0188 20.1506 19.7938 19.6264C19.5689 19.1023 19.4564 18.499 19.4564 17.8166C19.4564 17.2529 19.6046 16.6891 19.9012 16.1254C20.1977 15.5617 20.7039 15.0524 21.4197 14.5974C22.1457 14.1326 23.1068 13.7519 24.3032 13.4552C25.5098 13.1486 27.018 12.9755 28.8279 12.9359V12.1497C28.8279 11.1904 28.6183 10.4882 28.1991 10.0432C27.7798 9.58822 27.1765 9.36076 26.3892 9.36076C25.8063 9.36076 25.3206 9.42999 24.9321 9.56844C24.5435 9.69701 24.201 9.84041 23.9044 9.99865C23.6181 10.147 23.3471 10.2904 23.0915 10.4289C22.8359 10.5574 22.5393 10.6217 22.2019 10.6217C21.9054 10.6217 21.6548 10.5525 21.4503 10.414C21.256 10.2657 21.0924 10.0926 20.9595 9.89481L20.2079 8.58935Z" fill="white"/>
<path d="M39.8803 8.98989C40.3813 8.11958 40.959 7.43223 41.6135 6.92785C42.2679 6.42347 43.0348 6.17128 43.9142 6.17128C44.6299 6.17128 45.2128 6.33446 45.6627 6.66082L45.3866 9.68712C45.3355 9.88492 45.2537 10.0234 45.1412 10.1025C45.039 10.1717 44.8958 10.2063 44.7118 10.2063C44.5481 10.2063 44.313 10.1866 44.0062 10.147C43.6994 10.0976 43.4131 10.0728 43.1473 10.0728C42.7587 10.0728 42.411 10.1272 42.1043 10.236C41.8077 10.3448 41.5419 10.4981 41.3067 10.6959C41.0715 10.8937 40.8568 11.136 40.6625 11.4228C40.4784 11.7096 40.3046 12.036 40.141 12.4019V21.7626H35.9077V6.46797H38.4078C38.8373 6.46797 39.1338 6.54215 39.2974 6.69049C39.461 6.83884 39.5786 7.09598 39.6502 7.4619L39.8803 8.98989Z" fill="white"/>
<path d="M65.3269 0.77141V21.7626H64.5906C64.4577 21.7626 64.3452 21.7429 64.2532 21.7033C64.1714 21.6539 64.0896 21.5747 64.0078 21.4659L49.9121 3.24882C49.9428 3.54552 49.9581 3.82738 49.9581 4.0944V21.7626H48.5777V0.77141H49.3599C49.5031 0.77141 49.6105 0.79119 49.682 0.83075C49.7638 0.860419 49.8508 0.934593 49.9428 1.05327L64.0078 19.2259C63.9771 18.9292 63.9618 18.6473 63.9618 18.3803V0.77141H65.3269Z" fill="white"/>
<path d="M80.9205 12.8914C80.9205 12.1002 80.8029 11.3931 80.5677 10.7701C80.3427 10.1371 80.0206 9.60306 79.6014 9.1679C79.1821 8.73275 78.6811 8.40144 78.0983 8.17397C77.5256 7.93662 76.8917 7.81794 76.1963 7.81794C75.409 7.81794 74.7034 7.93662 74.0797 8.17397C73.4559 8.41133 72.914 8.75253 72.4538 9.19757C72.0039 9.64262 71.6409 10.1767 71.3648 10.7997C71.0887 11.4228 70.9047 12.12 70.8127 12.8914H80.9205ZM70.736 13.7964V14.0782C70.736 15.1859 70.8689 16.16 71.1348 17.0007C71.4006 17.8413 71.779 18.5484 72.2698 19.1221C72.7606 19.6858 73.3537 20.111 74.049 20.3978C74.7443 20.6846 75.5215 20.8281 76.3804 20.8281C77.1473 20.8281 77.8119 20.7489 78.3743 20.5907C78.9367 20.4226 79.4071 20.2396 79.7854 20.0418C80.174 19.8341 80.4808 19.6512 80.7057 19.4929C80.9307 19.3248 81.0943 19.2407 81.1965 19.2407C81.3295 19.2407 81.4317 19.2902 81.5033 19.3891L81.9021 19.8638C81.6567 20.1605 81.3295 20.4374 80.9205 20.6945C80.5217 20.9517 80.0717 21.1742 79.5707 21.3621C79.0799 21.5401 78.5482 21.6835 77.9755 21.7923C77.4131 21.9011 76.8456 21.9555 76.273 21.9555C75.23 21.9555 74.2791 21.7824 73.4201 21.4363C72.5612 21.0802 71.825 20.566 71.2115 19.8935C70.5979 19.2209 70.1225 18.4001 69.785 17.4309C69.4578 16.4518 69.2942 15.3342 69.2942 14.0782C69.2942 13.02 69.4476 12.0459 69.7543 11.1558C70.0713 10.2558 70.5212 9.48438 71.1041 8.84154C71.6972 8.18881 72.418 7.67948 73.2668 7.31355C74.1257 6.94763 75.0971 6.76467 76.181 6.76467C77.0399 6.76467 77.8375 6.90807 78.5737 7.19488C79.31 7.48168 79.949 7.902 80.491 8.45583C81.0329 8.99978 81.4573 9.67229 81.764 10.4734C82.081 11.2744 82.2395 12.1942 82.2395 13.2326C82.2395 13.4502 82.2089 13.5986 82.1475 13.6777C82.0862 13.7568 81.9839 13.7964 81.8407 13.7964H70.736Z" fill="white"/>
<path d="M89.9731 22C88.9403 22 88.1325 21.7231 87.5497 21.1693C86.977 20.6154 86.6907 19.7599 86.6907 18.6028V8.51517H84.4974C84.3849 8.51517 84.2929 8.4855 84.2213 8.42616C84.1497 8.36683 84.1139 8.28276 84.1139 8.17397V7.62508L86.7214 7.44707L87.0895 2.16588C87.11 2.07687 87.1509 1.99775 87.2122 1.92852C87.2736 1.8593 87.3605 1.82468 87.473 1.82468H88.1632V7.4619H92.9793V8.51517H88.1632V18.5287C88.1632 18.9341 88.2143 19.2852 88.3166 19.5819C88.429 19.8687 88.5773 20.1061 88.7614 20.294C88.9556 20.4819 89.1806 20.6204 89.4362 20.7094C89.6919 20.7984 89.9679 20.8429 90.2645 20.8429C90.6326 20.8429 90.9496 20.7934 91.2154 20.6945C91.4813 20.5858 91.7114 20.472 91.9057 20.3533C92.0999 20.2248 92.2584 20.111 92.3811 20.0121C92.5038 19.9034 92.601 19.849 92.6726 19.849C92.7544 19.849 92.8362 19.8984 92.918 19.9973L93.3168 20.6204C92.9282 21.0357 92.4323 21.372 91.829 21.6291C91.2359 21.8764 90.6173 22 89.9731 22Z" fill="white"/>
<path d="M123.702 0.77141L116.876 21.7626H115.465L109.054 3.54552C108.972 3.29827 108.901 3.04113 108.839 2.77411C108.778 3.04113 108.706 3.29827 108.624 3.54552L102.198 21.7626H100.802L93.9612 0.77141H95.265C95.5615 0.77141 95.7507 0.904923 95.8325 1.17195L101.308 18.4248C101.421 18.8204 101.523 19.2704 101.615 19.7748C101.666 19.5176 101.717 19.2803 101.768 19.0627C101.819 18.8352 101.881 18.6226 101.952 18.4248L108.088 1.17195C108.129 1.06316 108.2 0.969208 108.302 0.890089C108.405 0.81097 108.527 0.77141 108.67 0.77141H109.1C109.243 0.77141 109.361 0.81097 109.453 0.890089C109.545 0.959317 109.616 1.05327 109.667 1.17195L115.803 18.4248C115.874 18.6127 115.936 18.8204 115.987 19.0479C116.048 19.2753 116.104 19.5127 116.155 19.7599C116.207 19.5127 116.253 19.2803 116.293 19.0627C116.345 18.8352 116.396 18.6226 116.447 18.4248L121.923 1.17195C121.953 1.06316 122.02 0.969208 122.122 0.890089C122.234 0.81097 122.362 0.77141 122.505 0.77141H123.702Z" fill="white"/>
<path d="M131.076 6.76467C132.17 6.76467 133.147 6.94763 134.006 7.31355C134.875 7.66959 135.606 8.17892 136.199 8.84154C136.792 9.50416 137.242 10.3052 137.549 11.2448C137.866 12.1744 138.024 13.2178 138.024 14.3749C138.024 15.532 137.866 16.5754 137.549 17.5051C137.242 18.4347 136.792 19.2308 136.199 19.8935C135.606 20.5561 134.875 21.0654 134.006 21.4214C133.147 21.7775 132.17 21.9555 131.076 21.9555C129.982 21.9555 129 21.7775 128.131 21.4214C127.272 21.0654 126.541 20.5561 125.938 19.8935C125.345 19.2308 124.89 18.4347 124.573 17.5051C124.266 16.5754 124.113 15.532 124.113 14.3749C124.113 13.2178 124.266 12.1744 124.573 11.2448C124.89 10.3052 125.345 9.50416 125.938 8.84154C126.541 8.17892 127.272 7.66959 128.131 7.31355C129 6.94763 129.982 6.76467 131.076 6.76467ZM131.076 20.8429C131.986 20.8429 132.779 20.6945 133.453 20.3978C134.139 20.0913 134.706 19.6561 135.156 19.0924C135.616 18.5287 135.959 17.8512 136.184 17.06C136.409 16.2589 136.521 15.3639 136.521 14.3749C136.521 13.3958 136.409 12.5057 136.184 11.7047C135.959 10.9036 135.616 10.2212 135.156 9.65745C134.706 9.08384 134.139 8.64374 133.453 8.33716C132.779 8.03057 131.986 7.87728 131.076 7.87728C130.166 7.87728 129.368 8.03057 128.683 8.33716C128.008 8.64374 127.441 9.08384 126.981 9.65745C126.531 10.2212 126.188 10.9036 125.953 11.7047C125.728 12.5057 125.616 13.3958 125.616 14.3749C125.616 15.3639 125.728 16.2589 125.953 17.06C126.188 17.8512 126.531 18.5287 126.981 19.0924C127.441 19.6561 128.008 20.0913 128.683 20.3978C129.368 20.6945 130.166 20.8429 131.076 20.8429Z" fill="white"/>
<path d="M143.184 10.5624C143.419 9.95909 143.685 9.42504 143.981 8.96022C144.288 8.4855 144.636 8.08496 145.024 7.7586C145.423 7.43223 145.863 7.18499 146.343 7.01686C146.834 6.83884 147.376 6.74983 147.969 6.74983C148.286 6.74983 148.598 6.7795 148.905 6.83884C149.211 6.88829 149.482 6.98224 149.718 7.1207L149.595 8.0998C149.544 8.25804 149.447 8.33716 149.303 8.33716C149.181 8.33716 148.992 8.30254 148.736 8.23331C148.491 8.16408 148.163 8.12947 147.754 8.12947C147.161 8.12947 146.635 8.21848 146.174 8.39649C145.725 8.56462 145.316 8.82176 144.947 9.1679C144.59 9.51405 144.273 9.94426 143.996 10.4585C143.731 10.9629 143.485 11.5464 143.26 12.209V21.7626H141.788V7.00202H142.57C142.744 7.00202 142.867 7.03664 142.938 7.10587C143.01 7.1751 143.056 7.29378 143.076 7.4619L143.184 10.5624Z" fill="white"/>
<path d="M153.754 0.178019V13.3365H154.46C154.603 13.3365 154.736 13.3167 154.859 13.2771C154.991 13.2376 155.135 13.1436 155.288 12.9953L161.408 7.37289C161.51 7.25422 161.623 7.16521 161.745 7.10587C161.868 7.03664 162.021 7.00202 162.205 7.00202H163.494L156.76 13.1881C156.576 13.3958 156.377 13.559 156.162 13.6777C156.326 13.7568 156.464 13.8508 156.576 13.9595C156.699 14.0584 156.817 14.1771 156.929 14.3156L164 21.7626H162.727C162.584 21.7626 162.451 21.7429 162.328 21.7033C162.216 21.6539 162.108 21.5599 162.006 21.4214L155.595 14.7755C155.513 14.6864 155.431 14.6123 155.349 14.5529C155.278 14.4936 155.201 14.4491 155.119 14.4194C155.037 14.3799 154.94 14.3551 154.828 14.3452C154.726 14.3255 154.598 14.3156 154.444 14.3156H153.754V21.7626H152.282V0.178019H153.754Z" fill="white"/>
</svg>
