<svg width="80" height="39" viewBox="0 0 80 39" fill="none" xmlns="http://www.w3.org/2000/svg">
<path fill-rule="evenodd" clip-rule="evenodd" d="M27.4294 8.88523C22.0629 9.46082 17.1343 10.4026 12.9737 11.6689C7.20803 13.4228 0.335938 16.6346 0.335938 21.9704C0.335938 26.0357 4.41761 28.7762 7.8421 30.3593C11.5043 32.0524 16.4274 33.4202 22.1778 34.351L21.7425 38.2162L34.486 33.4531L23.1231 25.9712L22.7018 29.7064C10.5182 27.7032 5.00487 24.058 5.00487 21.9704C5.00487 20.8579 6.96911 18.3757 14.3324 16.1354C18.1554 14.9721 22.6929 14.0996 27.6537 13.5545C27.4308 12.6105 27.3129 11.6264 27.3129 10.6153C27.3129 10.0286 27.3526 9.45111 27.4294 8.88523ZM52.5488 13.5399C52.7695 12.6003 52.8863 11.6212 52.8863 10.6153C52.8863 10.0235 52.8459 9.44099 52.7677 8.87036C58.1881 9.44454 63.1659 10.3916 67.3625 11.6689C73.1282 13.4228 80.0003 16.6346 80.0003 21.9704C80.0003 24.7505 78.0324 28.7233 68.6544 31.8609C62.1981 34.0203 53.456 35.3687 44.0385 35.6568L43.8957 30.9903C64.8268 30.3496 75.332 24.8623 75.332 21.9704C75.332 20.8579 73.3671 18.3757 66.0038 16.1354C62.1465 14.9617 57.5618 14.0839 52.5488 13.5399Z" fill="#D9D9D9"/>
<path d="M40.0995 0.357666C34.3382 0.357666 29.6519 5.04399 29.6519 10.8053C29.6519 16.5658 34.3382 21.253 40.0995 21.253C45.86 21.253 50.5472 16.5658 50.5472 10.8053C50.5472 5.04399 45.86 0.357666 40.0995 0.357666Z" fill="#D9D9D9"/>
</svg>
