<svg width="40" height="40" viewBox="0 0 40 40" fill="none" xmlns="http://www.w3.org/2000/svg">
<rect x="0.5" y="0.5" width="39" height="39" rx="7.5" stroke="white"/>
<g clip-path="url(#clip0)">
<path d="M20.0185 29.811C19.7048 29.811 19.4023 29.6973 19.1666 29.4908C18.2763 28.7124 17.418 27.9809 16.6608 27.3356L16.6569 27.3322C14.4368 25.4403 12.5196 23.8064 11.1857 22.1969C9.69454 20.3976 9 18.6916 9 16.8279C9 15.0171 9.6209 13.3466 10.7482 12.1238C11.889 10.8865 13.4542 10.2051 15.1562 10.2051C16.4283 10.2051 17.5932 10.6072 18.6187 11.4003C19.1362 11.8006 19.6052 12.2906 20.0185 12.862C20.4319 12.2906 20.9008 11.8006 21.4185 11.4003C22.4439 10.6072 23.6089 10.2051 24.881 10.2051C26.5828 10.2051 28.1482 10.8865 29.289 12.1238C30.4163 13.3466 31.037 15.0171 31.037 16.8279C31.037 18.6916 30.3426 20.3976 28.8515 22.1967C27.5176 23.8064 25.6005 25.4401 23.3807 27.3319C22.6221 27.9782 21.7625 28.7109 20.8702 29.4912C20.6347 29.6973 20.3321 29.811 20.0185 29.811ZM15.1562 11.496C13.8191 11.496 12.5907 12.0296 11.6971 12.9987C10.7902 13.9824 10.2907 15.3423 10.2907 16.8279C10.2907 18.3953 10.8733 19.7972 12.1795 21.3732C13.442 22.8966 15.3198 24.4969 17.494 26.3499L17.4981 26.3532C18.2582 27.001 19.1198 27.7354 20.0166 28.5196C20.9188 27.7339 21.7818 26.9983 22.5435 26.3495C24.7175 24.4966 26.5952 22.8966 27.8577 21.3732C29.1637 19.7972 29.7463 18.3953 29.7463 16.8279C29.7463 15.3423 29.2468 13.9824 28.3399 12.9987C27.4464 12.0296 26.2179 11.496 24.881 11.496C23.9014 11.496 23.0021 11.8073 22.208 12.4214C21.5004 12.9688 21.0074 13.6608 20.7184 14.145C20.5698 14.394 20.3082 14.5426 20.0185 14.5426C19.7288 14.5426 19.4672 14.394 19.3186 14.145C19.0297 13.6608 18.5368 12.9688 17.829 12.4214C17.0349 11.8073 16.1356 11.496 15.1562 11.496Z" fill="white"/>
</g>
<defs>
<clipPath id="clip0">
<rect width="22.037" height="22.037" fill="white" transform="translate(9 9)"/>
</clipPath>
</defs>
</svg>
