<svg width="27" height="22" viewBox="0 0 27 22" fill="none" xmlns="http://www.w3.org/2000/svg">
<path d="M25.8336 12.2443H6.44712C5.9607 12.2443 5.56592 11.7456 5.56592 11.1312C5.56592 10.5167 5.9607 10.0181 6.44712 10.0181H25.8336C26.32 10.0181 26.7148 10.5167 26.7148 11.1312C26.7148 11.7456 26.32 12.2443 25.8336 12.2443Z" fill="#4B4B4B"/>
<path d="M25.6013 2.2262H1.1131C0.498667 2.2262 0 1.72753 0 1.1131C0 0.498667 0.498667 0 1.1131 0H25.6013C26.2157 0 26.7144 0.498667 26.7144 1.1131C26.7144 1.72753 26.2157 2.2262 25.6013 2.2262Z" fill="#4B4B4B"/>
<path d="M25.6013 22.0002H1.1131C0.498667 22.0002 0 21.4315 0 20.7309C0 20.0303 0.498667 19.4617 1.1131 19.4617H25.6013C26.2157 19.4617 26.7144 20.0303 26.7144 20.7309C26.7144 21.4315 26.2157 22.0002 25.6013 22.0002Z" fill="#4B4B4B"/>
</svg>
