<svg width="41" height="41" viewBox="0 0 41 41" fill="none" xmlns="http://www.w3.org/2000/svg">
<path d="M0 20.5V7.92856C0 5.16714 2.23858 2.92856 5 2.92856H12.5715C15.3329 2.92856 17.5715 5.16714 17.5715 7.92856V15.5C17.5715 18.2614 15.3329 20.5 12.5715 20.5H10.8572C8.09577 20.5 5.76174 22.8379 6.90882 25.3498C8.36579 28.5403 11.2139 30.9676 14.6727 31.8514C16.2398 32.2517 17.5715 33.5255 17.5715 35.1429C17.5715 36.7603 16.2504 38.0971 14.6552 37.8295C6.34887 36.4366 0 29.1963 0 20.5Z" fill="#D3D3D3"/>
<path d="M38.1012 31.8514C39.6683 32.2517 40.9999 33.5255 40.9999 35.1429C40.9999 36.7603 39.6789 38.0971 38.0837 37.8295C29.7773 36.4366 23.4285 29.1963 23.4285 20.5V7.92856C23.4285 5.16714 25.667 2.92856 28.4285 2.92856H35.9999C38.7613 2.92856 40.9999 5.16714 40.9999 7.92856V15.5C40.9999 18.2614 38.7613 20.5 35.9999 20.5H34.2857C31.5242 20.5 29.1902 22.8379 30.3373 25.3498C31.7943 28.5403 34.6423 30.9676 38.1012 31.8514Z" fill="#D3D3D3"/>
</svg>
