<svg width="17" height="16" viewBox="0 0 17 16" fill="none" xmlns="http://www.w3.org/2000/svg">
<g clip-path="url(#clip0)">
<path d="M16.157 14.5735L12.349 10.6129C13.3281 9.44901 13.8646 7.98455 13.8646 6.45999C13.8646 2.89801 10.9666 0 7.40457 0C3.84259 0 0.94458 2.89801 0.94458 6.45999C0.94458 10.022 3.84259 12.92 7.40457 12.92C8.74179 12.92 10.0161 12.5167 11.1056 11.751L14.9425 15.7416C15.1029 15.9082 15.3186 16 15.5498 16C15.7686 16 15.9761 15.9166 16.1337 15.7649C16.4685 15.4428 16.4792 14.9085 16.157 14.5735ZM7.40457 1.68522C10.0374 1.68522 12.1793 3.82713 12.1793 6.45999C12.1793 9.09286 10.0374 11.2348 7.40457 11.2348C4.7717 11.2348 2.6298 9.09286 2.6298 6.45999C2.6298 3.82713 4.7717 1.68522 7.40457 1.68522Z" fill="white"/>
</g>
<defs>
<clipPath id="clip0">
<rect width="16" height="16" fill="white" transform="translate(0.669189)"/>
</clipPath>
</defs>
</svg>
