<svg width="330" height="134" viewBox="0 0 330 134" fill="none" xmlns="http://www.w3.org/2000/svg">
<path d="M0 8C0 3.58172 3.58172 0 8 0H322C326.418 0 330 3.58172 330 8V134H0V8Z" fill="#EAE9FF"/>
<path d="M139.939 45.0034C138.208 39.8296 132.864 36.9541 129.347 38.1304C125.831 39.3067 123.293 44.8195 125.023 49.9932C126.625 54.7822 131.48 57.5469 134.819 57.0535C134.795 57.0954 134.779 57.1415 134.773 57.1893L134.671 58.041C134.663 58.1059 134.672 58.1718 134.697 58.2323C134.721 58.2928 134.761 58.3459 134.812 58.3867C134.863 58.4274 134.924 58.4544 134.989 58.4651C135.053 58.4758 135.119 58.4698 135.181 58.4478L136.901 57.831C136.963 57.8089 137.018 57.7715 137.061 57.7222C137.104 57.673 137.133 57.6135 137.147 57.5496C137.161 57.4856 137.158 57.4192 137.138 57.3567C137.119 57.2942 137.084 57.2377 137.037 57.1925L136.417 56.5998C136.395 56.5796 136.37 56.5621 136.344 56.5477C139.323 54.9425 141.545 49.8028 139.939 45.0034Z" fill="#BEBAFC"/>
<path d="M133.673 41.1971C135.111 41.9389 136.208 43.2043 136.74 44.7319C137.271 46.2596 137.196 47.933 136.529 49.4068C136.38 49.7456 136.928 49.9238 137.076 49.5872C137.776 47.9926 137.847 46.1924 137.275 44.5475C136.703 42.9026 135.531 41.5348 133.993 40.7182C133.668 40.5461 133.346 41.0238 133.673 41.1971Z" fill="white"/>
<path d="M210.013 37.4619C208.282 32.2881 202.937 29.4126 199.421 30.5889C195.905 31.7652 193.366 37.278 195.097 42.4517C196.699 47.2407 201.554 50.0054 204.893 49.512C204.869 49.5539 204.853 49.6 204.846 49.6478L204.744 50.4995C204.736 50.5644 204.745 50.6303 204.77 50.6908C204.795 50.7513 204.835 50.8044 204.886 50.8452C204.937 50.8859 204.998 50.9129 205.062 50.9236C205.127 50.9343 205.193 50.9283 205.255 50.9063L206.975 50.2895C207.036 50.2674 207.091 50.2299 207.134 50.1807C207.177 50.1314 207.207 50.072 207.221 50.0081C207.234 49.9441 207.231 49.8777 207.212 49.8152C207.193 49.7527 207.158 49.6962 207.111 49.651L206.49 49.0583C206.468 49.0381 206.444 49.0206 206.418 49.0062C209.396 47.401 211.618 42.2612 210.013 37.4619Z" fill="#BEBAFC"/>
<path d="M203.747 33.6554C205.184 34.3972 206.282 35.6625 206.813 37.1902C207.345 38.7179 207.27 40.3913 206.603 41.865C206.454 42.2039 207.001 42.3821 207.149 42.0454C207.849 40.4509 207.92 38.6506 207.349 37.0058C206.777 35.3609 205.604 33.993 204.066 33.1764C203.742 33.0044 203.42 33.4821 203.747 33.6554Z" fill="white"/>
<path d="M169.32 29.1347C167.589 23.961 162.244 21.0855 158.728 22.2617C155.212 23.438 152.673 28.9508 154.404 34.1246C156.006 38.9136 160.861 41.6782 164.2 41.1848C164.176 41.2267 164.16 41.2728 164.154 41.3207L164.051 42.1724C164.044 42.2373 164.053 42.3031 164.077 42.3636C164.102 42.4241 164.142 42.4773 164.193 42.518C164.244 42.5588 164.305 42.5858 164.37 42.5965C164.434 42.6072 164.5 42.6012 164.562 42.5791L166.282 41.9623C166.344 41.9402 166.398 41.9028 166.441 41.8535C166.484 41.8043 166.514 41.7449 166.528 41.6809C166.541 41.6169 166.538 41.5506 166.519 41.4881C166.5 41.4256 166.465 41.3691 166.418 41.3239L165.798 40.7312C165.776 40.711 165.751 40.6935 165.725 40.679C168.704 39.0738 170.926 33.9341 169.32 29.1347Z" fill="#BEBAFC"/>
<path d="M163.054 25.3285C164.491 26.0703 165.589 27.3356 166.121 28.8633C166.652 30.391 166.577 32.0644 165.91 33.5381C165.761 33.877 166.309 34.0552 166.456 33.7185C167.156 32.124 167.228 30.3237 166.656 28.6789C166.084 27.034 164.911 25.6661 163.373 24.8495C163.049 24.6775 162.727 25.1552 163.054 25.3285Z" fill="white"/>
<path d="M160.639 54.03C160.867 54.03 161.052 53.8454 161.052 53.6177C161.052 53.3899 160.867 53.2053 160.639 53.2053C160.412 53.2053 160.227 53.3899 160.227 53.6177C160.227 53.8454 160.412 54.03 160.639 54.03Z" fill="#6C63FF"/>
<path d="M159.76 70.571C160.21 70.571 160.575 70.2063 160.575 69.7565C160.575 69.3066 160.21 68.9419 159.76 68.9419C159.31 68.9419 158.946 69.3066 158.946 69.7565C158.946 70.2063 159.31 70.571 159.76 70.571Z" fill="#6C63FF"/>
<path d="M146.124 67.4343C146.383 67.4343 146.594 67.2236 146.594 66.9636C146.594 66.7037 146.383 66.4929 146.124 66.4929C145.864 66.4929 145.653 66.7037 145.653 66.9636C145.653 67.2236 145.864 67.4343 146.124 67.4343Z" fill="#6C63FF"/>
<path d="M153.274 59.7272C153.556 59.7272 153.784 59.499 153.784 59.2175C153.784 58.936 153.556 58.7078 153.274 58.7078C152.993 58.7078 152.765 58.936 152.765 59.2175C152.765 59.499 152.993 59.7272 153.274 59.7272Z" fill="#6C63FF"/>
<path d="M178.357 89.571C178.584 89.571 178.769 89.3864 178.769 89.1587C178.769 88.9309 178.584 88.7463 178.357 88.7463C178.129 88.7463 177.944 88.9309 177.944 89.1587C177.944 89.3864 178.129 89.571 178.357 89.571Z" fill="#6C63FF"/>
<path d="M164.853 81.092C165.303 81.092 165.667 80.7273 165.667 80.2775C165.667 79.8276 165.303 79.4629 164.853 79.4629C164.403 79.4629 164.038 79.8276 164.038 80.2775C164.038 80.7273 164.403 81.092 164.853 81.092Z" fill="#6C63FF"/>
<path d="M174.128 70.3694C174.388 70.3694 174.599 70.1586 174.599 69.8987C174.599 69.6387 174.388 69.428 174.128 69.428C173.868 69.428 173.658 69.6387 173.658 69.8987C173.658 70.1586 173.868 70.3694 174.128 70.3694Z" fill="#6C63FF"/>
<path d="M177.224 80.4858C177.506 80.4858 177.734 80.2576 177.734 79.976C177.734 79.6945 177.506 79.4663 177.224 79.4663C176.943 79.4663 176.714 79.6945 176.714 79.976C176.714 80.2576 176.943 80.4858 177.224 80.4858Z" fill="#6C63FF"/>
<path d="M204.68 106.739C205.129 106.362 204.522 104.896 203.322 103.463C202.123 102.03 200.786 101.174 200.336 101.551C199.886 101.927 200.494 103.394 201.693 104.827C202.893 106.259 204.23 107.116 204.68 106.739Z" fill="#2F2E41"/>
<path d="M195.31 109.736C199.048 109.736 202.077 106.707 202.077 102.97C202.077 99.2328 199.048 96.2034 195.31 96.2034C191.573 96.2034 188.544 99.2328 188.544 102.97C188.544 106.707 191.573 109.736 195.31 109.736Z" fill="#2F2E41"/>
<path d="M198.174 108.28H196.119V111.963H198.174V108.28Z" fill="#2F2E41"/>
<path d="M194.063 108.28H192.007V111.963H194.063V108.28Z" fill="#2F2E41"/>
<path d="M196.462 112.649C197.408 112.649 198.175 112.361 198.175 112.006C198.175 111.652 197.408 111.364 196.462 111.364C195.515 111.364 194.749 111.652 194.749 112.006C194.749 112.361 195.515 112.649 196.462 112.649Z" fill="#2F2E41"/>
<path d="M192.35 112.563C193.296 112.563 194.063 112.276 194.063 111.921C194.063 111.566 193.296 111.278 192.35 111.278C191.404 111.278 190.637 111.566 190.637 111.921C190.637 112.276 191.404 112.563 192.35 112.563Z" fill="#2F2E41"/>
<path d="M193.186 94.4642C193.79 92.0309 196.457 90.599 199.143 91.2659C201.829 91.9328 203.516 94.446 202.912 96.8792C202.308 99.3125 200.303 99.3203 197.618 98.6534C194.932 97.9865 192.582 96.8974 193.186 94.4642Z" fill="#C0BCFF"/>
<path d="M190.746 101.28C190.998 100.75 189.833 99.6713 188.144 98.8706C186.456 98.0699 184.884 97.8504 184.632 98.3804C184.381 98.9104 185.546 99.9892 187.234 100.79C188.922 101.591 190.495 101.81 190.746 101.28Z" fill="#2F2E41"/>
<path d="M194.299 103.798C195.545 103.798 196.555 102.788 196.555 101.542C196.555 100.296 195.545 99.2861 194.299 99.2861C193.053 99.2861 192.043 100.296 192.043 101.542C192.043 102.788 193.053 103.798 194.299 103.798Z" fill="white"/>
<path d="M193.372 101.485C193.787 101.485 194.124 101.149 194.124 100.733C194.124 100.318 193.787 99.9814 193.372 99.9814C192.956 99.9814 192.62 100.318 192.62 100.733C192.62 101.149 192.956 101.485 193.372 101.485Z" fill="#3F3D56"/>
<path d="M195.714 106.242C195.75 106.437 195.746 106.636 195.705 106.829C195.663 107.022 195.584 107.205 195.471 107.368C195.359 107.53 195.216 107.669 195.05 107.776C194.884 107.883 194.698 107.956 194.504 107.991C194.31 108.027 194.11 108.024 193.917 107.982C193.724 107.94 193.541 107.861 193.379 107.749C193.216 107.636 193.078 107.493 192.971 107.327C192.864 107.161 192.79 106.975 192.755 106.781L192.755 106.778C192.607 105.961 193.238 105.672 194.056 105.524C194.873 105.376 195.566 105.425 195.714 106.242Z" fill="white"/>
<path d="M139.68 98.2395C140.347 96.4941 140.444 94.9094 139.896 94.7C139.348 94.4905 138.363 95.7357 137.696 97.4811C137.029 99.2264 136.932 100.811 137.48 101.021C138.028 101.23 139.013 99.9849 139.68 98.2395Z" fill="#2F2E41"/>
<path d="M132.433 109.736C136.17 109.736 139.2 106.707 139.2 102.97C139.2 99.2329 136.17 96.2034 132.433 96.2034C128.696 96.2034 125.667 99.2329 125.667 102.97C125.667 106.707 128.696 109.736 132.433 109.736Z" fill="#2F2E41"/>
<path d="M131.406 108.28H129.35V111.963H131.406V108.28Z" fill="#2F2E41"/>
<path d="M135.517 108.28H133.461V111.963H135.517V108.28Z" fill="#2F2E41"/>
<path d="M131.063 112.649C132.009 112.649 132.776 112.361 132.776 112.006C132.776 111.652 132.009 111.364 131.063 111.364C130.117 111.364 129.35 111.652 129.35 112.006C129.35 112.361 130.117 112.649 131.063 112.649Z" fill="#2F2E41"/>
<path d="M135.174 112.563C136.12 112.563 136.887 112.276 136.887 111.921C136.887 111.566 136.12 111.278 135.174 111.278C134.228 111.278 133.461 111.566 133.461 111.921C133.461 112.276 134.228 112.563 135.174 112.563Z" fill="#2F2E41"/>
<path d="M132.605 103.57C133.882 103.57 134.917 102.534 134.917 101.257C134.917 99.9797 133.882 98.9443 132.605 98.9443C131.327 98.9443 130.292 99.9797 130.292 101.257C130.292 102.534 131.327 103.57 132.605 103.57Z" fill="white"/>
<path d="M132.605 102.028C133.031 102.028 133.376 101.682 133.376 101.257C133.376 100.831 133.031 100.486 132.605 100.486C132.179 100.486 131.834 100.831 131.834 101.257C131.834 101.682 132.179 102.028 132.605 102.028Z" fill="#3F3D56"/>
<path d="M125.87 96.6771C125.324 94.2302 127.07 91.7577 129.771 91.1546C132.472 90.5516 135.104 92.0463 135.651 94.4932C136.197 96.94 134.407 97.8425 131.706 98.4456C129.005 99.0486 126.416 99.124 125.87 96.6771Z" fill="#C0BCFF"/>
<path d="M127.869 101.28C128.12 100.75 126.955 99.6713 125.267 98.8706C123.579 98.0699 122.006 97.8504 121.755 98.3804C121.504 98.9104 122.668 99.9892 124.357 100.79C126.045 101.591 127.617 101.81 127.869 101.28Z" fill="#2F2E41"/>
<path d="M129.11 105.411C129.11 106.073 130.815 107.381 132.707 107.381C134.599 107.381 136.374 105.516 136.374 104.854C136.374 104.192 134.599 104.983 132.707 104.983C130.815 104.983 129.11 104.749 129.11 105.411Z" fill="white"/>
<path d="M164.755 103.295C168.492 103.295 171.521 100.265 171.521 96.5283C171.521 92.7912 168.492 89.7617 164.755 89.7617C161.018 89.7617 157.988 92.7912 157.988 96.5283C157.988 100.265 161.018 103.295 164.755 103.295Z" fill="#2F2E41"/>
<path d="M163.727 101.839H161.671V105.522H163.727V101.839Z" fill="#2F2E41"/>
<path d="M167.838 101.839H165.783V105.522H167.838V101.839Z" fill="#2F2E41"/>
<path d="M163.384 106.207C164.331 106.207 165.097 105.919 165.097 105.565C165.097 105.21 164.331 104.922 163.384 104.922C162.438 104.922 161.671 105.21 161.671 105.565C161.671 105.919 162.438 106.207 163.384 106.207Z" fill="#2F2E41"/>
<path d="M167.496 106.121C168.442 106.121 169.209 105.834 169.209 105.479C169.209 105.124 168.442 104.836 167.496 104.836C166.55 104.836 165.783 105.124 165.783 105.479C165.783 105.834 166.55 106.121 167.496 106.121Z" fill="#2F2E41"/>
<path d="M158.191 90.2354C157.645 87.7885 159.391 85.3161 162.092 84.713C164.793 84.1099 167.425 85.6046 167.972 88.0515C168.518 90.4984 166.728 91.4009 164.027 92.0039C161.327 92.607 158.738 92.6823 158.191 90.2354Z" fill="#B4AFFF"/>
<path d="M172.047 93.5713C173.512 92.1048 174.327 90.543 173.866 90.0829C173.406 89.6229 171.845 90.4388 170.379 91.9054C168.914 93.3719 168.099 94.9337 168.56 95.3938C169.02 95.8538 170.581 95.0379 172.047 93.5713Z" fill="#2F2E41"/>
<path d="M159.301 95.8653C159.761 95.4053 158.947 93.8435 157.481 92.3769C156.016 90.9104 154.455 90.0944 153.994 90.5545C153.534 91.0145 154.349 92.5763 155.814 94.0429C157.279 95.5094 158.841 96.3253 159.301 95.8653Z" fill="#2F2E41"/>
<path d="M205.892 53.5836C205.668 46.6454 200.916 41.1688 195.278 41.3514C182.732 41.7231 182.426 64.7303 194.539 66.383L194.282 68.4216L198.023 68.3005L197.636 66.2827C202.508 65.2057 206.096 59.8738 205.892 53.5836Z" fill="#FF6584"/>
<path d="M189.039 57.4303L187.626 57.4761C187.072 54.8422 186.984 52.1316 187.367 49.4674L188.78 49.4216C188.258 52.2105 188.345 54.88 189.039 57.4303Z" fill="white"/>
<path d="M198.207 66.2509L193.967 66.3882L193.997 67.3304L198.237 67.1931L198.207 66.2509Z" fill="#3F3D56"/>
<path d="M185.892 102.329L185.465 102.129L195.962 66.531L196.389 66.731L185.892 102.329Z" fill="#3F3D56"/>
<path d="M214.58 59.4506C217.144 52.9995 214.973 46.0814 209.731 43.9985C198.08 39.3313 188.615 60.3038 199.061 66.6542L198.013 68.421L201.491 69.8033L201.941 67.7984C206.838 68.756 212.256 65.2993 214.58 59.4506Z" fill="#6C63FF"/>
<path d="M197.593 56.2504L196.279 55.7282C196.822 53.0921 197.824 50.5718 199.238 48.2817L200.552 48.8039C198.96 51.1526 197.974 53.6348 197.593 56.2504Z" fill="white"/>
<path d="M198.535 66.4306L198.187 67.3066L202.129 68.8732L202.477 67.9972L198.535 66.4306Z" fill="#3F3D56"/>
<path d="M185.809 101.392L185.399 101.159L200.054 67.7139L200.464 67.9469L185.809 101.392Z" fill="#3F3D56"/>
<path d="M134.921 54.0318C132.147 47.6681 125.708 44.3362 120.537 46.5897C109.017 51.5731 117.238 73.0638 129.103 70.1216L129.619 72.1106L133.05 70.6151L131.944 68.8836C136.073 66.0816 137.436 59.8012 134.921 54.0318Z" fill="#6C63FF"/>
<path d="M120.684 63.836L119.388 64.401C117.9 62.1585 116.816 59.6723 116.187 57.0554L117.483 56.4905C118.029 59.2747 119.096 61.7232 120.684 63.836Z" fill="white"/>
<path d="M132.463 68.643L128.574 70.3379L128.95 71.2021L132.839 69.5072L132.463 68.643Z" fill="#3F3D56"/>
<path d="M141.46 102.42C141.4 102.435 141.335 102.426 141.282 102.393C141.228 102.361 141.19 102.309 141.175 102.248L130.93 69.7856L131.387 69.6721L141.632 102.135C141.64 102.165 141.641 102.196 141.637 102.227C141.632 102.257 141.621 102.287 141.605 102.313C141.589 102.34 141.568 102.363 141.543 102.381C141.519 102.399 141.49 102.413 141.46 102.42Z" fill="#3F3D56"/>
<path d="M144.198 112.684H119.531C119.489 112.684 119.45 112.667 119.42 112.638C119.391 112.608 119.374 112.568 119.374 112.527C119.374 112.485 119.391 112.445 119.42 112.415C119.45 112.386 119.489 112.369 119.531 112.369H144.198C144.24 112.369 144.28 112.386 144.309 112.415C144.339 112.445 144.355 112.485 144.355 112.527C144.355 112.568 144.339 112.608 144.309 112.638C144.28 112.667 144.24 112.684 144.198 112.684Z" fill="#6C63FF"/>
<path d="M206.887 112.684H182.22C182.178 112.684 182.138 112.667 182.109 112.638C182.08 112.608 182.063 112.568 182.063 112.527C182.063 112.485 182.08 112.445 182.109 112.415C182.138 112.386 182.178 112.369 182.22 112.369H206.887C206.929 112.369 206.969 112.386 206.998 112.415C207.028 112.445 207.044 112.485 207.044 112.527C207.044 112.568 207.028 112.608 206.998 112.638C206.969 112.667 206.929 112.684 206.887 112.684Z" fill="#6C63FF"/>
<path d="M177.506 106.242H152.839C152.798 106.242 152.758 106.225 152.728 106.196C152.699 106.166 152.682 106.127 152.682 106.085C152.682 106.043 152.699 106.003 152.728 105.974C152.758 105.944 152.798 105.928 152.839 105.928H177.506C177.548 105.928 177.588 105.944 177.617 105.974C177.647 106.003 177.663 106.043 177.663 106.085C177.663 106.127 177.647 106.166 177.617 106.196C177.588 106.225 177.548 106.242 177.506 106.242Z" fill="#6C63FF"/>
<path d="M164.47 97.8821C165.748 97.8821 166.783 96.8467 166.783 95.5695C166.783 94.2922 165.748 93.2568 164.47 93.2568C163.193 93.2568 162.158 94.2922 162.158 95.5695C162.158 96.8467 163.193 97.8821 164.47 97.8821Z" fill="white"/>
<path d="M164.47 96.3401C164.896 96.3401 165.241 95.995 165.241 95.5692C165.241 95.1435 164.896 94.7983 164.47 94.7983C164.044 94.7983 163.699 95.1435 163.699 95.5692C163.699 95.995 164.044 96.3401 164.47 96.3401Z" fill="#3F3D56"/>
<path d="M166.306 99.8464C166.378 100.239 166.29 100.644 166.063 100.972C165.836 101.3 165.488 101.524 165.096 101.595C164.703 101.667 164.299 101.58 163.971 101.353C163.643 101.126 163.418 100.778 163.347 100.385L163.346 100.382C163.198 99.5649 163.83 99.2757 164.648 99.1277C165.465 98.9798 166.158 99.0291 166.306 99.8464Z" fill="white"/>
</svg>
