<svg width="35" height="35" viewBox="0 0 35 35" fill="none" xmlns="http://www.w3.org/2000/svg">
<path d="M24.384 1.40618C24.1119 1.28965 23.7968 1.41572 23.6803 1.68791C23.5638 1.95999 23.6899 2.27517 23.9621 2.39159C30.0161 4.9845 33.928 10.9149 33.928 17.5C33.928 26.5584 26.5584 33.928 17.5 33.928C8.44158 33.928 1.07203 26.5584 1.07203 17.5C1.07203 8.44158 8.44158 1.07203 17.5 1.07203C19.1465 1.07203 20.7716 1.31474 22.33 1.7934C22.613 1.88012 22.9128 1.72136 22.9998 1.43845C23.0868 1.15543 22.9278 0.855586 22.6448 0.768644C20.9843 0.258573 19.2533 0 17.5 0C7.85046 0 0 7.85046 0 17.5C0 27.1495 7.85046 35 17.5 35C27.1495 35 35 27.1495 35 17.5C35 10.4853 30.833 4.16804 24.384 1.40618Z" fill="#F09001"/>
<path d="M28.3076 9.82644C28.4207 9.82644 28.5347 9.79074 28.6317 9.71698C28.8673 9.53774 28.913 9.20144 28.7337 8.96581C28.5159 8.67947 28.284 8.39764 28.0445 8.12835C27.8478 7.90708 27.5089 7.88725 27.2878 8.08396C27.0665 8.28068 27.0467 8.61944 27.2434 8.84071C27.4648 9.08963 27.6791 9.35013 27.8805 9.61492C27.9861 9.75343 28.1459 9.82644 28.3076 9.82644Z" fill="#F09001"/>
<path d="M17.4998 30.5353C14.7692 30.5353 12.1549 29.7002 9.93956 28.1201C9.69857 27.9483 9.36378 28.0042 9.19193 28.2453C9.02008 28.4863 9.07604 28.8211 9.31714 28.993C11.7152 30.7033 14.5448 31.6073 17.4999 31.6073C25.2787 31.6073 31.6072 25.2788 31.6072 17.5001C31.6072 15.0477 30.968 12.6321 29.7589 10.5146C29.6122 10.2576 29.2847 10.1683 29.0277 10.315C28.7706 10.4618 28.6812 10.7892 28.828 11.0462C29.9449 13.0021 30.5351 15.2338 30.5351 17.5001C30.535 24.6877 24.6874 30.5353 17.4998 30.5353Z" fill="#F09001"/>
<path d="M7.40979 26.5914C7.19785 26.798 7.19367 27.1374 7.40036 27.3494C7.5752 27.5286 7.75756 27.7058 7.94205 27.8759C8.04507 27.9708 8.17522 28.0177 8.30515 28.0177C8.44965 28.0177 8.59384 27.9596 8.69944 27.8449C8.90001 27.6273 8.88618 27.2881 8.66846 27.0875C8.4979 26.9303 8.32948 26.7665 8.16782 26.6008C7.96103 26.389 7.62173 26.3847 7.40979 26.5914Z" fill="#F09001"/>
<path d="M17.5002 3.39282C9.72146 3.39282 3.39307 9.72133 3.39307 17.5001C3.39307 20.4202 4.2776 23.2221 5.95082 25.603C6.05523 25.7515 6.22118 25.8309 6.38981 25.8309C6.49627 25.8309 6.6039 25.7993 6.69759 25.7334C6.93976 25.5631 6.99819 25.2287 6.82795 24.9866C5.28219 22.7872 4.46509 20.1984 4.46509 17.5001C4.46509 10.3124 10.3126 4.46485 17.5002 4.46485C20.7081 4.46485 23.7912 5.64065 26.1812 7.77581C26.402 7.97306 26.7408 7.95387 26.938 7.73314C27.1352 7.5123 27.1162 7.17354 26.8953 6.97629C24.3085 4.66553 20.972 3.39282 17.5002 3.39282Z" fill="#F09001"/>
<path d="M17.9387 23.0533C17.8965 22.8173 17.6892 22.6396 17.4443 22.6396C17.2007 22.6396 16.9936 22.8163 16.9505 23.0509C15.674 22.9012 14.2381 22.0999 13.9256 20.8364C13.925 20.8337 13.9185 20.805 13.8987 20.6639C13.8619 20.4012 13.6383 20.2032 13.3777 20.2032C13.2325 20.206 13.0945 20.2703 12.9994 20.3796C12.9042 20.489 12.8595 20.6341 12.8766 20.7781C12.895 20.932 12.9019 20.9763 12.906 20.9978C13.0713 21.8765 13.5994 22.6358 14.433 23.1937C15.1382 23.6657 16.0276 23.9719 16.9424 24.0583V24.6943C16.9424 24.9583 17.1405 25.1849 17.3935 25.2103C17.4108 25.212 17.4277 25.2129 17.4446 25.2129C17.6009 25.2129 17.7459 25.1414 17.8427 25.0168C17.9097 24.9305 17.9466 24.8156 17.9466 24.6932V24.0576C19.0008 23.9549 20.0338 23.5516 20.7876 22.947C21.6643 22.2441 22.1277 21.3255 22.1277 20.2905C22.1277 20.0476 22.099 19.8102 22.0318 19.4961C21.5637 17.3701 19.569 17.1345 17.9466 16.9591V11.8367C18.8293 11.9196 19.6604 12.2829 20.1778 12.8133C20.4637 13.1293 20.6579 13.5146 20.7541 13.9531C20.7829 14.202 20.9934 14.3898 21.2439 14.3898C21.2748 14.3898 21.306 14.3868 21.3366 14.381L21.3581 14.3769C21.6092 14.3291 21.7807 14.101 21.7571 13.8455L21.7501 13.7817C21.5825 12.9079 21.0861 12.1657 20.3147 11.6353C19.6586 11.1842 18.8194 10.8992 17.9467 10.83V10.3055C17.9467 10.0415 17.7486 9.81492 17.4956 9.78951C17.1963 9.75907 16.9424 9.99534 16.9425 10.2891V10.8351C16.4077 10.8847 15.8907 11.0076 15.4048 11.2005C15.2846 11.2482 15.1874 11.3327 15.1309 11.4386C15.0533 11.584 15.049 11.7491 15.1191 11.8913C15.2038 12.0633 15.3746 12.1701 15.5648 12.1701C15.627 12.1701 15.6879 12.1584 15.7458 12.1352C16.1141 11.9888 16.5164 11.891 16.9425 11.8442V16.8695C15.5331 16.6914 14.1596 16.364 13.9953 14.7096C13.9722 14.293 14.0148 13.6934 14.349 13.2036C14.3572 13.1916 14.3801 13.1621 14.4104 13.1239C14.5797 12.9115 14.551 12.6063 14.3453 12.4294C14.2542 12.3511 14.138 12.3079 14.0179 12.3079C13.8634 12.3079 13.7197 12.3772 13.6237 12.498C13.5991 12.529 13.5397 12.6044 13.5205 12.6338C13.1182 13.2498 12.9196 14.0313 12.9759 14.78C13.0948 15.8416 13.5575 16.6084 14.3902 17.1242C15.1863 17.6172 16.2181 17.7925 16.9424 17.8799V21.5155C16.9424 21.7821 17.141 22.0104 17.3945 22.0352C17.6932 22.0642 17.9466 21.8289 17.9466 21.5355V17.9842C19.4147 18.1451 20.7465 18.4101 21.0431 19.7236C21.0854 19.9066 21.1059 20.092 21.1059 20.2903C21.1058 21.9815 19.4741 22.9033 17.9387 23.0533Z" fill="#F09001"/>
</svg>
