<svg width="35" height="35" viewBox="0 0 35 35" fill="none" xmlns="http://www.w3.org/2000/svg">
<g clip-path="url(#clip0)">
<path d="M33.7779 14.2327C33.4198 13.6312 33.0815 13.063 32.8977 12.4969C32.7026 11.8958 32.637 11.2151 32.5677 10.4945C32.4568 9.34298 32.3423 8.15222 31.6584 7.21256C30.9674 6.26311 29.8656 5.78644 28.8001 5.32543C28.1402 5.03996 27.517 4.77028 27.0141 4.40428C26.5206 4.04519 26.0779 3.54043 25.6091 3.00606C24.8388 2.12805 24.0423 1.22017 22.9089 0.852194C21.8246 0.500075 20.6672 0.756628 19.548 1.00464C18.8612 1.15687 18.151 1.31424 17.5 1.31424C16.8491 1.31424 16.1388 1.1568 15.452 1.00464C14.3328 0.756628 13.1754 0.500075 12.091 0.852262C10.9577 1.22024 10.1612 2.12812 9.39094 3.00613C8.9222 3.54043 8.47937 4.04519 7.98595 4.40428C7.81231 4.53068 7.61421 4.65277 7.38028 4.77753C7.13043 4.91076 7.03596 5.22132 7.16919 5.47117C7.30242 5.72102 7.61298 5.81543 7.8629 5.68219C8.13921 5.53481 8.37689 5.38798 8.58936 5.23328C9.17499 4.80706 9.67668 4.23523 10.1618 3.68227C10.8719 2.8729 11.5426 2.10837 12.4078 1.82741C13.2267 1.56163 14.1999 1.7773 15.2303 2.00569C15.9709 2.16982 16.7369 2.33956 17.5001 2.33956C18.2634 2.33956 19.0293 2.16982 19.77 2.00562C20.8005 1.7773 21.7739 1.56163 22.5924 1.82734C23.4576 2.10823 24.1283 2.87276 24.8384 3.6822C25.3236 4.23516 25.8252 4.80699 26.4109 5.23321C27.0056 5.66606 27.711 5.97122 28.3931 6.26632C29.3755 6.69132 30.3034 7.09279 30.8295 7.81576C31.3486 8.52902 31.445 9.53137 31.5472 10.5926C31.6188 11.3364 31.6928 12.1055 31.9227 12.8134C32.142 13.4887 32.5259 14.1335 32.8972 14.7571C33.4511 15.6881 33.9746 16.5673 33.9746 17.5C33.9746 18.4328 33.4511 19.312 32.8969 20.2429C32.5256 20.8665 32.1417 21.5112 31.9225 22.1864C31.6926 22.8943 31.6186 23.6634 31.547 24.4073C31.4448 25.4685 31.3484 26.4709 30.8293 27.1842C30.3031 27.9071 29.3753 28.3085 28.3929 28.7335C27.7107 29.0286 27.0054 29.3338 26.4106 29.7666C25.825 30.1929 25.3233 30.7647 24.8382 31.3176C24.1281 32.127 23.4574 32.8916 22.5922 33.1724C21.7735 33.4383 20.8003 33.2225 19.7697 32.9942C19.029 32.83 18.2631 32.6603 17.4999 32.6603C16.7367 32.6603 15.9708 32.83 15.2301 32.9942C14.1996 33.2225 13.2264 33.4382 12.4076 33.1724C11.5424 32.8916 10.8717 32.127 10.1616 31.3176C9.67647 30.7646 9.17485 30.1928 8.58915 29.7666C7.99442 29.3337 7.28902 29.0286 6.60693 28.7335C5.62461 28.3085 4.6967 27.907 4.17054 27.1841C3.65148 26.4708 3.55503 25.4685 3.45283 24.4073C3.38126 23.6634 3.30723 22.8943 3.0774 22.1864C2.85817 21.5112 2.47427 20.8664 2.10301 20.2429C1.54889 19.312 1.02539 18.4328 1.02539 17.5C1.02539 16.5673 1.54889 15.6881 2.10314 14.7572C2.4744 14.1337 2.85831 13.4888 3.07754 12.8137C3.30743 12.1057 3.3814 11.3365 3.45304 10.5927C3.55517 9.53151 3.65162 8.52916 4.17074 7.8159C4.46981 7.40499 4.91784 7.06476 5.62352 6.71278C5.87692 6.58638 5.97987 6.27849 5.85348 6.02515C5.72708 5.77174 5.41919 5.6688 5.16585 5.79519C4.58644 6.08422 3.85547 6.50654 3.34161 7.21262C2.65774 8.15229 2.54317 9.34298 2.4323 10.4946C2.36298 11.2152 2.29742 11.8959 2.10226 12.4971C1.91851 13.0631 1.5802 13.6312 1.22206 14.2327C0.62125 15.2417 0 16.2851 0 17.5C0 18.715 0.62125 19.7584 1.22206 20.7675C1.5802 21.369 1.91851 21.9371 2.10226 22.5031C2.29742 23.1043 2.36291 23.7849 2.4323 24.5055C2.54311 25.6571 2.65774 26.8478 3.34161 27.7875C4.03259 28.7369 5.1344 29.2136 6.19992 29.6746C6.85979 29.9601 7.4831 30.2298 7.98595 30.5958C8.47937 30.9549 8.92213 31.4596 9.39094 31.9939C10.1612 32.8719 10.9577 33.7799 12.0911 34.1478C12.473 34.2718 12.8638 34.3203 13.2589 34.3203C13.9858 34.3203 14.7269 34.1561 15.452 33.9954C16.1388 33.8432 16.8491 33.6858 17.5 33.6858C18.151 33.6858 18.8612 33.8432 19.548 33.9954C20.6672 34.2434 21.8246 34.5 22.909 34.1478C24.0423 33.7798 24.8388 32.8719 25.609 31.9939C26.0778 31.4596 26.5206 30.9549 27.0141 30.5957C27.5169 30.2298 28.1402 29.9601 28.8001 29.6746C29.8656 29.2135 30.9674 28.7369 31.6584 27.7874C32.3423 26.8478 32.4568 25.657 32.5677 24.5055C32.637 23.7849 32.7026 23.1042 32.8977 22.503C33.0815 21.937 33.4198 21.3689 33.7779 20.7674C34.3787 19.7583 35 18.7149 35 17.5C35 16.2851 34.3787 15.2417 33.7779 14.2327Z" fill="#03814C"/>
<path d="M4.92578 13.4145C4.78018 13.863 4.50858 14.319 4.22113 14.8018C3.72737 15.6311 3.2168 16.4886 3.2168 17.5002C3.2168 18.5117 3.72737 19.3692 4.22113 20.1986C4.50858 20.6814 4.78011 21.1374 4.92578 21.5859C5.08075 22.0631 5.13332 22.6097 5.18903 23.1885C5.28009 24.1349 5.37429 25.1136 5.94427 25.8968C6.51999 26.6879 7.42555 27.0797 8.30123 27.4585C8.83108 27.6878 9.33154 27.9043 9.73049 28.1946C10.1218 28.4794 10.4772 28.8846 10.8536 29.3136C11.4866 30.0353 12.1412 30.7814 13.0854 31.088C13.4063 31.1922 13.7331 31.2329 14.0623 31.2329C14.6608 31.2329 15.2675 31.0984 15.861 30.9669C16.438 30.839 16.9831 30.7182 17.5001 30.7182C18.0172 30.7182 18.5622 30.839 19.1393 30.9669C20.0594 31.1708 21.0106 31.3817 21.9149 31.088C22.859 30.7814 23.5136 30.0353 24.1467 29.3136C24.523 28.8846 24.8785 28.4794 25.2697 28.1946C25.6687 27.9043 26.1691 27.6878 26.699 27.4585C27.5747 27.0796 28.4802 26.6879 29.056 25.8968C29.6259 25.1136 29.7201 24.135 29.8112 23.1885C29.8669 22.6098 29.9195 22.0631 30.0745 21.5859C30.2201 21.1374 30.4916 20.6814 30.7792 20.1986C31.2729 19.3693 31.7835 18.5118 31.7835 17.5002C31.7835 16.4887 31.2729 15.6311 30.7792 14.8019C30.4917 14.319 30.2202 13.863 30.0745 13.4145C29.9195 12.9373 29.8669 12.3906 29.8112 11.8119C29.7201 10.8655 29.6259 9.88683 29.056 9.10364C28.4802 8.31252 27.5747 7.92075 26.699 7.5419C26.1691 7.31263 25.6687 7.09613 25.2697 6.80581C24.8784 6.52102 24.523 6.11586 24.1467 5.68684C23.5136 4.96517 22.859 4.21902 21.9149 3.91243C21.0105 3.61883 20.0593 3.82965 19.1393 4.03356C18.5622 4.16147 18.0172 4.28226 17.5001 4.28226C16.9831 4.28226 16.438 4.16147 15.861 4.03356C14.941 3.82965 13.9896 3.61883 13.0854 3.91243C12.1412 4.21896 11.4866 4.96517 10.8536 5.68684C10.4772 6.11579 10.1218 6.52102 9.73049 6.80581C9.33154 7.09613 8.83108 7.31269 8.30123 7.5419C7.42555 7.92075 6.51999 8.31252 5.94427 9.10364C5.37429 9.88683 5.28016 10.8655 5.18903 11.8119C5.13332 12.3906 5.08075 12.9372 4.92578 13.4145ZM6.20971 11.9101C6.29119 11.0634 6.36816 10.2637 6.77333 9.70691C7.18424 9.14233 7.92457 8.822 8.70845 8.48287C9.26626 8.24156 9.84308 7.99198 10.3339 7.63474C10.8174 7.28289 11.2277 6.81524 11.6245 6.36298C12.191 5.71712 12.7262 5.10708 13.4021 4.88765C14.0405 4.68045 14.817 4.85244 15.6392 5.03462C16.2447 5.16881 16.8709 5.30758 17.5002 5.30758C18.1295 5.30758 18.7557 5.16881 19.3612 5.03462C20.1833 4.85237 20.9597 4.68024 21.5983 4.88765C22.2742 5.10708 22.8094 5.71712 23.376 6.36298C23.7727 6.81524 24.183 7.28289 24.6665 7.63474C25.1574 7.99198 25.7342 8.24156 26.292 8.48287C27.0758 8.822 27.8161 9.14226 28.2271 9.70691C28.6323 10.2637 28.7092 11.0634 28.7907 11.9101C28.8492 12.5183 28.9098 13.1472 29.0994 13.7312C29.2805 14.2889 29.5946 14.8163 29.8983 15.3264C30.3406 16.0692 30.7583 16.7708 30.7583 17.5002C30.7583 18.2295 30.3406 18.9312 29.8983 19.6739C29.5946 20.1839 29.2805 20.7114 29.0994 21.2691C28.9098 21.8531 28.8492 22.482 28.7907 23.0902C28.7092 23.9369 28.6323 24.7367 28.2271 25.2934C27.8162 25.858 27.0759 26.1783 26.292 26.5174C25.7342 26.7587 25.1574 27.0083 24.6665 27.3656C24.183 27.7174 23.7727 28.1851 23.376 28.6373C22.8094 29.2832 22.2742 29.8932 21.5983 30.1127C20.9598 30.32 20.1833 30.1479 19.3612 29.9657C18.7557 29.8315 18.1295 29.6927 17.5002 29.6927C16.8709 29.6927 16.2447 29.8315 15.6392 29.9657C14.8172 30.1479 14.0406 30.32 13.4021 30.1127C12.7262 29.8932 12.191 29.2832 11.6245 28.6373C11.2277 28.1851 10.8174 27.7174 10.3339 27.3656C9.84308 27.0083 9.26626 26.7588 8.70845 26.5174C7.92464 26.1783 7.18431 25.858 6.77333 25.2934C6.36816 24.7366 6.29119 23.9369 6.20971 23.0902C6.15119 22.482 6.09069 21.8532 5.90106 21.2692C5.71998 20.7115 5.40594 20.1841 5.10222 19.674C4.65993 18.9312 4.24219 18.2296 4.24219 17.5002C4.24219 16.7708 4.65993 16.0692 5.10222 15.3264C5.40587 14.8163 5.71998 14.2888 5.90106 13.7312C6.09062 13.1472 6.15119 12.5183 6.20971 11.9101Z" fill="#03814C"/>
<path d="M15.6533 24.2969C15.6234 24.2969 15.5935 24.2964 15.5635 24.2954C14.8055 24.2697 14.0928 23.9205 13.6081 23.3372L11.0628 20.2748C10.4987 19.5959 10.5919 18.5846 11.2708 18.0204L11.9843 17.4274C12.6633 16.8632 13.6744 16.9564 14.2387 17.6353L15.521 19.1782C15.5931 19.2649 15.685 19.2805 15.7333 19.2822C15.7811 19.2838 15.8742 19.2744 15.952 19.1928C15.9563 19.1882 15.9607 19.1838 15.9652 19.1794L22.5145 12.7895C22.8087 12.4844 23.2037 12.3109 23.6277 12.3006C24.0545 12.2899 24.4611 12.4469 24.7707 12.7418L25.4425 13.3818C26.0817 13.9906 26.1063 15.0059 25.4975 15.645C25.4939 15.6488 25.4903 15.6524 25.4867 15.656L22.0064 19.096C21.805 19.2951 21.4803 19.2931 21.2814 19.0917C21.0823 18.8903 21.0843 18.5657 21.2856 18.3667L24.7595 14.933C24.9738 14.703 24.9634 14.3415 24.7353 14.1241L24.0634 13.4841C23.9521 13.3781 23.8061 13.3214 23.6525 13.3255C23.4988 13.3292 23.3558 13.3925 23.2498 13.5038C23.2454 13.5083 23.2411 13.5128 23.2366 13.5172L16.6871 19.9073C16.4292 20.1738 16.0681 20.3196 15.6985 20.3067C15.324 20.294 14.9718 20.1215 14.7324 19.8333L13.4501 18.2904C13.2473 18.0464 12.8837 18.0129 12.6397 18.2156L11.9261 18.8086C11.682 19.0115 11.6485 19.375 11.8513 19.619L14.3965 22.6815C14.6944 23.0399 15.1323 23.2545 15.5981 23.2702C16.0634 23.2863 16.5153 23.1015 16.8367 22.7641C16.8402 22.7604 16.8439 22.7567 16.8475 22.7531L19.7219 19.912C19.9234 19.7128 20.248 19.7148 20.447 19.9162C20.6461 20.1176 20.6442 20.4422 20.4428 20.6412L17.5736 23.4773C17.0716 24.0013 16.3765 24.2969 15.6533 24.2969Z" fill="#03814C"/>
</g>
<defs>
<clipPath id="clip0">
<rect width="35" height="35" fill="white"/>
</clipPath>
</defs>
</svg>
