<svg width="330" height="134" viewBox="0 0 330 134" fill="none" xmlns="http://www.w3.org/2000/svg">
<path d="M0 8C0 3.58172 3.58172 0 8 0H322C326.418 0 330 3.58172 330 8V134H0V8Z" fill="#FFDCDC"/>
<path d="M245 112H85V113H245V112Z" fill="#85848B"/>
<path d="M175.267 85.0466C175.997 85.1402 176.755 85.1996 177.454 84.9728C177.564 84.9386 177.685 84.8627 177.674 84.7525C177.666 84.7125 177.649 84.6749 177.625 84.6424C177.361 84.2471 177.14 83.8252 176.964 83.3838C176.957 83.3607 176.943 83.3406 176.923 83.3265C176.9 83.3183 176.875 83.3183 176.853 83.3265C176.53 83.4113 176.251 83.6194 175.931 83.7086C175.768 83.7534 175.597 83.7662 175.429 83.7461C175.283 83.7295 175.085 83.6095 174.953 83.6249C175.028 84.1061 175.211 84.5554 175.267 85.0466Z" fill="#6C63FF"/>
<path d="M189.075 83.8276C189.556 83.4972 190.055 83.1504 190.339 82.6405C190.36 82.61 190.371 82.5747 190.373 82.5381C190.369 82.5021 190.355 82.468 190.333 82.439C190.062 82.0088 189.714 81.6327 189.305 81.3301C189.092 81.4806 188.9 81.6583 188.733 81.8587C188.612 81.9864 188.277 82.189 188.273 82.3839C188.273 82.4941 188.401 82.6218 188.461 82.7143C188.541 82.8332 188.617 82.9544 188.69 83.0777C188.732 83.1383 189.114 83.8034 189.075 83.8276Z" fill="#6C63FF"/>
<path d="M178.129 86.521C178.137 86.6345 178.106 86.7474 178.041 86.8404C177.989 86.8921 177.926 86.93 177.856 86.9505C176.835 87.3161 175.653 86.8602 174.635 87.2203C174.425 87.2941 174.227 87.4009 174.017 87.4714C173.766 87.5468 173.507 87.5926 173.246 87.6079C172.886 87.6421 172.524 87.6641 172.162 87.674C171.888 87.6934 171.612 87.6693 171.345 87.6024C171.212 87.5683 171.087 87.5064 170.979 87.4208C170.871 87.3352 170.783 87.2279 170.719 87.1058C170.663 86.9963 170.652 86.8697 170.688 86.7523C170.704 86.712 170.727 86.6748 170.755 86.6422C170.824 86.5647 170.905 86.4989 170.995 86.4473L171.371 86.205C171.547 86.0805 171.738 85.9791 171.94 85.9033C172.089 85.8548 172.246 85.8339 172.397 85.7931C172.925 85.639 173.328 85.2205 173.702 84.8186L174.213 84.2735C174.261 84.2135 174.321 84.165 174.39 84.1314C174.461 84.1078 174.536 84.1006 174.61 84.1105C175.107 84.1459 175.586 84.3066 176.003 84.5774C176.11 84.6574 176.225 84.7254 176.347 84.78C176.647 84.8968 177.031 84.8087 177.307 84.6611C177.438 84.5906 177.41 84.551 177.465 84.4254C177.52 84.2999 177.654 84.2195 177.771 84.334C177.806 84.3736 177.831 84.4213 177.844 84.4728C177.954 84.8362 177.912 85.2271 177.912 85.6081C177.909 85.6677 177.916 85.7274 177.934 85.7843C177.962 85.8417 177.996 85.8963 178.034 85.9473C178.042 85.9608 178.049 85.9748 178.055 85.9892C178.122 86.1578 178.148 86.3404 178.129 86.521Z" fill="#514E7F"/>
<path d="M178.129 86.5213C178.137 86.6347 178.106 86.7476 178.041 86.8406C177.989 86.8923 177.926 86.9302 177.856 86.9507C176.835 87.3163 175.653 86.8604 174.635 87.2205C174.425 87.2943 174.227 87.4011 174.017 87.4716C173.766 87.547 173.507 87.5928 173.246 87.6082C172.886 87.6423 172.524 87.6643 172.162 87.6742C171.888 87.6937 171.612 87.6695 171.345 87.6026C171.212 87.5685 171.087 87.5066 170.979 87.421C170.871 87.3355 170.783 87.2281 170.719 87.106C170.663 86.9965 170.652 86.8699 170.688 86.7525C170.704 86.7123 170.727 86.675 170.755 86.6424C170.815 86.7668 170.858 86.932 170.895 86.9915C170.946 87.0796 171.014 87.1559 171.097 87.2154C171.179 87.2748 171.273 87.316 171.373 87.3362C171.522 87.3453 171.671 87.3263 171.813 87.28C172.738 87.0509 173.722 87.0476 174.61 86.7008C174.915 86.5807 175.206 86.4211 175.527 86.3484C175.847 86.2757 176.187 86.2955 176.518 86.268C177.04 86.2261 177.545 86.0687 178.059 85.9861C178.126 86.1562 178.15 86.3399 178.129 86.5213Z" fill="#464353"/>
<path d="M191.413 83.7605C191.364 84.1482 191.119 84.4818 190.849 84.7648C190.579 85.0478 190.274 85.3022 190.059 85.6282C189.795 86.0323 189.676 86.5334 189.332 86.8747C189.201 86.9989 189.052 87.1045 188.892 87.1886C188.712 87.2946 188.522 87.382 188.325 87.4496C187.812 87.6136 187.259 87.5762 186.723 87.5366C186.548 87.5349 186.376 87.5017 186.214 87.4385C186.14 87.401 186.069 87.3576 186.002 87.3086C185.868 87.2258 185.755 87.1127 185.672 86.9782C185.631 86.9052 185.62 86.8194 185.64 86.7382C185.671 86.6488 185.723 86.5685 185.793 86.5047C185.914 86.3792 186.043 86.2626 186.181 86.1556C186.369 86.034 186.539 85.8856 186.685 85.7152C186.775 85.5805 186.841 85.4315 186.88 85.2747C186.958 84.9999 187.006 84.7174 187.022 84.4323C187.021 84.2428 187.041 84.0538 187.08 83.8685C187.162 83.5777 187.378 83.3179 187.354 83.0172C187.344 82.9742 187.348 82.9291 187.365 82.8884C187.39 82.8565 187.426 82.8344 187.466 82.8256C187.634 82.7585 187.812 82.7173 187.992 82.7034C188.083 82.6971 188.174 82.7111 188.258 82.7442C188.343 82.7773 188.419 82.8288 188.481 82.895C188.556 82.9853 188.606 83.1152 188.716 83.1505C188.77 83.1654 188.828 83.1676 188.883 83.1571C189.154 83.1295 189.44 83.0954 189.654 82.9203C189.753 82.8318 189.832 82.7237 189.887 82.603C189.942 82.4823 189.971 82.3515 189.973 82.2189C189.973 82.1186 189.928 82.014 190.083 81.9986C190.2 81.9832 190.293 82.1087 190.352 82.1858C190.567 82.4732 190.787 82.7739 190.867 83.124C190.899 83.1119 190.932 83.1056 190.965 83.1053C191.034 83.1047 191.102 83.1207 191.163 83.152C191.224 83.1832 191.277 83.2288 191.317 83.2848C191.404 83.4269 191.438 83.5956 191.413 83.7605Z" fill="#514E7F"/>
<path d="M191.413 83.7606C191.364 84.1482 191.119 84.4819 190.849 84.7649C190.579 85.0479 190.274 85.3023 190.06 85.6283C189.795 86.0324 189.676 86.5334 189.333 86.8748C189.201 86.999 189.053 87.1045 188.892 87.1887C188.713 87.2947 188.523 87.3821 188.325 87.4496C187.812 87.6137 187.259 87.5763 186.723 87.5366C186.549 87.535 186.376 87.5018 186.214 87.4386C186.14 87.4011 186.07 87.3576 186.003 87.3087C185.868 87.2259 185.755 87.1128 185.672 86.9783C185.776 86.9287 185.888 86.9017 186.003 86.899C186.241 86.9123 186.415 87.1369 186.643 87.2063C186.967 87.3043 187.291 87.0752 187.62 86.997C187.835 86.9464 188.061 86.9596 188.273 86.8869C188.451 86.8185 188.614 86.7193 188.757 86.594C188.952 86.4542 189.126 86.2865 189.273 86.0963C189.395 85.906 189.497 85.7034 189.576 85.4917C189.75 85.0861 189.955 84.6944 190.188 84.32C190.223 84.2608 190.265 84.206 190.313 84.1571C190.365 84.1097 190.423 84.0767 190.481 84.0348C190.702 83.8685 190.793 83.5943 190.87 83.3256C190.891 83.244 190.92 83.1646 190.957 83.0889C191.026 83.0883 191.094 83.1043 191.155 83.1355C191.216 83.1668 191.269 83.2124 191.308 83.2684C191.403 83.4138 191.44 83.5892 191.413 83.7606Z" fill="#464353"/>
<path d="M173.461 66.1368C173.607 66.6874 173.396 67.2666 173.224 67.8117C172.966 68.6327 172.789 69.4775 172.698 70.3334C172.687 70.5513 172.643 70.7662 172.568 70.971C172.487 71.1549 172.348 71.3102 172.253 71.4853C171.993 71.9456 172 72.5072 172.056 73.0336C172.093 73.3805 172.15 73.7263 172.219 74.0676C172.304 74.485 172.408 74.9211 172.286 75.3285C172.491 75.2834 172.63 75.5487 172.617 75.7569C172.603 75.965 172.536 76.1974 172.636 76.3768C172.89 76.4693 172.892 76.8173 172.884 77.0871C172.888 77.5549 172.947 78.0206 173.06 78.4746C173.444 80.3173 173.85 82.1549 174.28 83.9873C175.211 84.2758 176.298 84.5764 177.185 84.1767C177.351 84.1029 177.516 83.9851 177.553 83.8067C177.563 83.7105 177.551 83.6134 177.518 83.5225L177.097 81.9919C176.995 81.6219 176.893 81.2398 176.946 80.8598C176.987 80.5768 177.111 80.2718 176.972 80.0218C176.924 79.9359 176.85 79.8688 176.794 79.7873C176.574 79.4646 176.69 79.0329 176.708 78.642C176.714 78.5543 176.708 78.466 176.69 78.3799C176.66 78.2794 176.618 78.1829 176.564 78.0925C176.217 77.4176 176.05 76.6641 176.08 75.9055C176.093 75.8087 176.08 75.7102 176.041 75.6203C176.015 75.5832 175.991 75.5442 175.97 75.5036C175.953 75.4329 175.961 75.3587 175.993 75.2933C175.867 75.1975 175.753 75.0865 175.654 74.9629C175.715 74.9249 175.766 74.8736 175.805 74.8127C175.843 74.7519 175.867 74.6831 175.875 74.6116C175.883 74.5401 175.874 74.4678 175.85 74.4001C175.826 74.3323 175.787 74.271 175.735 74.2207C175.78 74.2116 175.822 74.1903 175.855 74.1591C175.889 74.1279 175.913 74.088 175.925 74.0438C175.937 73.9997 175.937 73.953 175.924 73.909C175.912 73.865 175.887 73.8254 175.853 73.7945C175.799 73.7571 175.727 73.7406 175.689 73.6844C175.629 73.6029 175.678 73.4895 175.726 73.4025L175.983 72.9389C176.175 72.5942 176.217 72.1681 176.423 71.8377C176.719 71.3565 176.911 70.8202 177.102 70.2894L177.843 68.2445L178.342 68.6772C178.508 68.8042 178.647 68.9629 178.751 69.1441C178.822 69.3233 178.867 69.5117 178.885 69.7036C179.067 70.8136 179.766 71.776 180.024 72.8695C180.082 73.1129 180.12 73.3684 180.26 73.5765C180.31 73.6404 180.355 73.7081 180.394 73.7791C180.431 73.8874 180.45 74.0007 180.45 74.115C180.474 74.3386 180.545 74.5547 180.659 74.7485C180.773 74.9423 180.927 75.1093 181.111 75.2382C181.357 75.4067 181.662 75.5223 181.795 75.7888C181.822 75.8713 181.859 75.9501 181.905 76.0234C182.024 76.1665 182.281 76.183 182.331 76.3625C182.36 76.4627 182.307 76.5828 182.363 76.6709C182.395 76.7116 182.437 76.7432 182.486 76.7623L183.202 77.1202C184.004 77.521 184.414 78.4416 185.005 79.1122C185.209 79.3307 185.39 79.5698 185.545 79.8258C185.8 80.2828 185.918 80.8565 186.35 81.1473C186.466 81.2074 186.571 81.2859 186.662 81.3796C186.798 81.558 186.748 81.808 186.76 82.0326C186.772 82.2573 186.944 82.5249 187.158 82.4566C187.083 82.7287 187.083 83.0159 187.158 83.288C188.096 83.2398 188.99 82.8775 189.697 82.2595C189.907 82.0767 190.108 81.8432 190.11 81.5657C190.113 81.5178 190.103 81.47 190.079 81.4281C190.037 81.3739 189.981 81.3317 189.918 81.3058C189.247 80.9424 189.045 80.1 188.706 79.4162C188.41 78.8127 187.972 78.2929 187.605 77.7324C186.808 76.5266 186.264 75.0675 185.058 74.2713C184.793 74.0963 184.484 73.941 184.351 73.6514C184.277 73.4895 184.268 73.3045 184.21 73.1371C184.152 72.9697 184.012 72.8067 183.833 72.8067C183.932 72.5645 183.913 72.2694 183.919 72.0073C183.926 71.891 183.913 71.7743 183.88 71.6626C183.834 71.5424 183.774 71.4278 183.702 71.3212C183.388 70.7886 183.23 70.1777 183.249 69.5593C183.257 69.2411 183.314 68.9129 183.218 68.609C183.169 68.4559 183.085 68.316 183.026 68.1685C182.938 67.9011 182.892 67.6218 182.889 67.3404L182.822 66.2821C182.812 65.9297 182.767 65.5792 182.686 65.236C182.466 64.4145 182.245 60.9732 181.491 60.5856C180.737 60.198 179.441 62.8464 178.592 62.8981C178.216 62.9138 177.845 62.9854 177.49 63.1107C176.926 63.3221 176.452 63.7163 175.991 64.1017L174.429 65.4133C174.099 65.6853 173.826 65.9452 173.461 66.1368Z" fill="#464353"/>
<path d="M198.095 69.0075V67.6398C198.095 66.633 197.695 65.6675 196.983 64.9557C196.271 64.2439 195.305 63.844 194.298 63.844H140.285C139.278 63.844 138.313 64.2439 137.601 64.9557C136.889 65.6675 136.489 66.633 136.488 67.6398V70.1616L198.095 69.0075Z" fill="#33323D"/>
<path d="M155.311 62.2409C155.311 62.2409 155.157 71.8059 156.852 74.9531C158.548 78.1004 159.275 91.7916 159.275 91.7916C159.275 91.7916 177.053 93.6306 189.441 89.5892C201.83 85.5478 228.191 83.8949 228.191 83.8949L223.748 53.9543C223.748 53.9543 201.802 52.547 189.318 58.5012C176.834 64.4554 155.311 62.2409 155.311 62.2409Z" fill="#8DD070"/>
<path opacity="0.1" d="M155.311 62.2409C155.311 62.2409 155.157 71.8059 156.852 74.9531C158.548 78.1004 159.275 91.7916 159.275 91.7916C159.275 91.7916 177.053 93.6306 189.441 89.5892C201.83 85.5478 228.191 83.8949 228.191 83.8949L223.748 53.9543C223.748 53.9543 201.802 52.547 189.318 58.5012C176.834 64.4554 155.311 62.2409 155.311 62.2409Z" fill="black"/>
<path d="M159.246 65.7349C159.246 65.7349 158.69 73.6272 160.085 76.149C161.48 78.6708 161.545 89.9283 161.545 89.9283C161.545 89.9283 177.544 90.6705 188.925 86.7965C200.306 82.9225 224.222 80.4096 224.222 80.4096L221.504 55.9243C221.504 55.9243 201.716 55.7206 190.166 61.1738C178.617 66.6269 159.246 65.7349 159.246 65.7349Z" fill="#8DD070"/>
<path opacity="0.1" d="M189.991 82.3134C192.267 82.0299 193.62 77.842 193.011 72.9596C192.403 68.0772 190.065 64.349 187.788 64.6326C185.512 64.9161 184.159 69.104 184.768 73.9864C185.376 78.8688 187.714 82.597 189.991 82.3134Z" fill="black"/>
<path opacity="0.2" d="M211.717 39.3689C211.717 39.3689 190.397 44.7648 180.343 54.2627C170.289 63.7605 149.124 68.2578 149.124 68.2578C149.124 68.2578 151.912 77.4077 154.491 79.8832C157.07 82.3587 161.961 95.1679 161.961 95.1679C161.961 95.1679 179.445 91.4613 189.995 83.8101C200.544 76.159 225.131 66.4959 225.131 66.4959L211.717 39.3689Z" fill="black"/>
<path d="M148.803 66.8878C148.803 66.8878 151.59 76.0388 154.167 78.5143C156.744 80.9898 161.637 93.7979 161.637 93.7979C161.637 93.7979 179.123 90.0924 189.674 82.4412C200.224 74.7901 224.809 65.1303 224.809 65.1303L211.395 38C211.395 38 190.076 43.3959 180.022 52.8938C169.968 62.3916 148.803 66.8878 148.803 66.8878Z" fill="#8DD070"/>
<path opacity="0.1" d="M148.803 66.8878C148.803 66.8878 151.59 76.0388 154.167 78.5143C156.744 80.9898 161.637 93.7979 161.637 93.7979C161.637 93.7979 179.123 90.0924 189.674 82.4412C200.224 74.7901 224.809 65.1303 224.809 65.1303L211.395 38C211.395 38 190.076 43.3959 180.022 52.8938C169.968 62.3916 148.803 66.8878 148.803 66.8878Z" fill="black"/>
<path d="M153.616 69.0065C153.616 69.0065 155.509 76.6896 157.611 78.6608C159.714 80.6319 163.228 91.3246 163.228 91.3246C163.228 91.3246 178.682 87.1202 188.325 79.9404C197.968 72.7605 219.961 63.0402 219.961 63.0402L209.862 40.5625C209.862 40.5625 190.967 46.4396 181.647 55.1743C172.328 63.9091 153.616 69.0065 153.616 69.0065Z" fill="#8DD070"/>
<path opacity="0.1" d="M187.969 75.3505C190.048 74.3821 190.05 69.9812 187.973 65.521C185.896 61.0607 182.527 58.23 180.447 59.1984C178.368 60.1668 178.365 64.5677 180.442 69.0279C182.519 73.4882 185.889 76.3189 187.969 75.3505Z" fill="black"/>
<path opacity="0.1" d="M199.553 70.35V108.341C199.553 108.773 199.468 109.2 199.303 109.599C199.138 109.997 198.896 110.36 198.591 110.665C198.285 110.97 197.923 111.212 197.525 111.377C197.126 111.542 196.699 111.627 196.267 111.626H139.775C138.904 111.626 138.069 111.28 137.453 110.664C136.838 110.048 136.492 109.212 136.492 108.341V66.52C138.11 67.1213 138.11 67.1213 139.775 67.0706H196.267C197.138 67.0706 197.972 67.4159 198.588 68.0307C199.204 68.6455 199.551 69.4796 199.553 70.35Z" fill="black"/>
<path d="M199.553 70.8335V108.825C199.553 109.696 199.207 110.532 198.59 111.148C197.974 111.764 197.138 112.11 196.267 112.11H139.775C138.904 112.11 138.069 111.763 137.453 111.147C136.838 110.531 136.492 109.696 136.492 108.825V67.0024C138.11 67.6026 138.11 67.6026 139.775 67.553H196.267C197.138 67.553 197.973 67.8985 198.589 68.5135C199.205 69.1286 199.552 69.963 199.553 70.8335Z" fill="#504F60"/>
<path opacity="0.1" d="M199.392 84.8794V97.029H187.609C186.012 97.0075 184.488 96.358 183.366 95.2211C182.245 94.0842 181.616 92.5513 181.616 90.9542C181.616 89.3571 182.245 87.8242 183.366 86.6873C184.488 85.5504 186.012 84.9009 187.609 84.8794H199.392Z" fill="black"/>
<path d="M199.553 84.5557V96.7074H187.77C186.173 96.6859 184.649 96.0364 183.527 94.8995C182.405 93.7626 181.776 92.2298 181.776 90.6326C181.776 89.0355 182.405 87.5027 183.527 86.3658C184.649 85.2289 186.173 84.5794 187.77 84.5579L199.553 84.5557Z" fill="#33323D"/>
<path opacity="0.1" d="M188.335 93.3233C189.643 93.3233 190.704 92.2628 190.704 90.9546C190.704 89.6464 189.643 88.5859 188.335 88.5859C187.027 88.5859 185.966 89.6464 185.966 90.9546C185.966 92.2628 187.027 93.3233 188.335 93.3233Z" fill="black"/>
<path d="M188.496 93.0018C189.804 93.0018 190.864 91.9413 190.864 90.6331C190.864 89.3249 189.804 88.2644 188.496 88.2644C187.187 88.2644 186.127 89.3249 186.127 90.6331C186.127 91.9413 187.187 93.0018 188.496 93.0018Z" fill="#6C63FF"/>
<circle cx="100" cy="80" r="4" fill="#F29C9C"/>
<circle cx="149.5" cy="39.5" r="8.5" fill="#F29C9C"/>
<circle cx="244.5" cy="92.5" r="3.5" fill="#F29C9C"/>
</svg>
